<svg width="80" height="81" viewBox="0 0 80 81" fill="none" xmlns="http://www.w3.org/2000/svg">
<path d="M37.5 56.3584C36.81 56.3584 36.25 55.7984 36.25 55.1084V35.1084C36.25 34.4184 36.81 33.8584 37.5 33.8584C38.19 33.8584 38.75 34.4184 38.75 35.1084V55.1084C38.75 55.7984 38.19 56.3584 37.5 56.3584Z" fill="url(#paint0_linear_2240_1469)"/>
<path d="M42.5 56.3584C41.8088 56.3584 41.25 55.7984 41.25 55.1084V35.1084C41.25 34.4184 41.8088 33.8584 42.5 33.8584C43.1912 33.8584 43.75 34.4184 43.75 35.1084V55.1084C43.75 55.7984 43.1912 56.3584 42.5 56.3584Z" fill="url(#paint1_linear_2240_1469)"/>
<path d="M50 56.3584C49.3088 56.3584 48.75 55.7984 48.75 55.1084V35.1084C48.75 34.4184 49.3088 33.8584 50 33.8584C50.6912 33.8584 51.25 34.4184 51.25 35.1084V55.1084C51.25 55.7984 50.6912 56.3584 50 56.3584Z" fill="url(#paint2_linear_2240_1469)"/>
<path d="M55 56.3584C54.3088 56.3584 53.75 55.7984 53.75 55.1084V35.1084C53.75 34.4184 54.3088 33.8584 55 33.8584C55.6912 33.8584 56.25 34.4184 56.25 35.1084V55.1084C56.25 55.7984 55.6912 56.3584 55 56.3584Z" fill="url(#paint3_linear_2240_1469)"/>
<path d="M25 56.3584C24.31 56.3584 23.75 55.7984 23.75 55.1084V35.1084C23.75 34.4184 24.31 33.8584 25 33.8584C25.69 33.8584 26.25 34.4184 26.25 35.1084V55.1084C26.25 55.7984 25.69 56.3584 25 56.3584Z" fill="url(#paint4_linear_2240_1469)"/>
<path d="M17.5 56.3584C16.81 56.3584 16.25 55.7984 16.25 55.1084V35.1084C16.25 34.4184 16.81 33.8584 17.5 33.8584C18.19 33.8584 18.75 34.4184 18.75 35.1084V55.1084C18.75 55.7984 18.19 56.3584 17.5 56.3584Z" fill="url(#paint5_linear_2240_1469)"/>
<path d="M62.5 56.3584C61.8088 56.3584 61.25 55.7984 61.25 55.1084V35.1084C61.25 34.4184 61.8088 33.8584 62.5 33.8584C63.1912 33.8584 63.75 34.4184 63.75 35.1084V55.1084C63.75 55.7984 63.1912 56.3584 62.5 56.3584Z" fill="url(#paint6_linear_2240_1469)"/>
<path d="M62.5 36.3584H55C54.3088 36.3584 53.75 35.7984 53.75 35.1084C53.75 34.4184 54.3088 33.8584 55 33.8584H62.5C63.1912 33.8584 63.75 34.4184 63.75 35.1084C63.75 35.7984 63.1912 36.3584 62.5 36.3584Z" fill="url(#paint7_linear_2240_1469)"/>
<path d="M50 36.3584H42.5C41.8088 36.3584 41.25 35.7984 41.25 35.1084C41.25 34.4184 41.8088 33.8584 42.5 33.8584H50C50.6912 33.8584 51.25 34.4184 51.25 35.1084C51.25 35.7984 50.6912 36.3584 50 36.3584Z" fill="url(#paint8_linear_2240_1469)"/>
<path d="M37.5 36.3584H30C29.31 36.3584 28.75 35.7984 28.75 35.1084C28.75 34.4184 29.31 33.8584 30 33.8584H37.5C38.19 33.8584 38.75 34.4184 38.75 35.1084C38.75 35.7984 38.19 36.3584 37.5 36.3584Z" fill="url(#paint9_linear_2240_1469)"/>
<path d="M25 36.3584H17.5C16.81 36.3584 16.25 35.7984 16.25 35.1084C16.25 34.4184 16.81 33.8584 17.5 33.8584H25C25.69 33.8584 26.25 34.4184 26.25 35.1084C26.25 35.7984 25.69 36.3584 25 36.3584Z" fill="url(#paint10_linear_2240_1469)"/>
<path d="M30 56.3584C29.31 56.3584 28.75 55.7984 28.75 55.1084V35.1084C28.75 34.4184 29.31 33.8584 30 33.8584C30.69 33.8584 31.25 34.4184 31.25 35.1084V55.1084C31.25 55.7984 30.69 56.3584 30 56.3584Z" fill="url(#paint11_linear_2240_1469)"/>
<path d="M67.5 31.3584H12.5C11.81 31.3584 11.25 30.7984 11.25 30.1084V22.6084C11.25 21.9184 11.81 21.3584 12.5 21.3584C13.19 21.3584 13.75 21.9184 13.75 22.6084V28.8584H66.25V22.6084C66.25 21.9184 66.8088 21.3584 67.5 21.3584C68.1912 21.3584 68.75 21.9184 68.75 22.6084V30.1084C68.75 30.7984 68.1912 31.3584 67.5 31.3584Z" fill="url(#paint12_linear_2240_1469)"/>
<path d="M67.4998 23.8586C67.3585 23.8586 67.2135 23.8336 67.0723 23.7823L39.5723 13.7823C38.9235 13.5461 38.5885 12.8286 38.8248 12.1798C39.061 11.5298 39.7773 11.1961 40.4273 11.4323L67.9273 21.4323C68.576 21.6686 68.911 22.3861 68.6748 23.0348C68.4898 23.5436 68.0098 23.8586 67.4998 23.8586Z" fill="url(#paint13_linear_2240_1469)"/>
<path d="M12.5002 23.8579C11.989 23.8579 11.5102 23.5429 11.3252 23.0342C11.0902 22.3854 11.424 21.6679 12.0727 21.4317L39.5727 11.4317C40.2202 11.1967 40.9377 11.5304 41.1752 12.1792C41.4115 12.8279 41.0765 13.5454 40.4277 13.7817L12.9277 23.7817C12.7865 23.8342 12.6427 23.8579 12.5002 23.8579Z" fill="url(#paint14_linear_2240_1469)"/>
<path d="M50 56.3584H42.5C41.8088 56.3584 41.25 55.7984 41.25 55.1084C41.25 54.4184 41.8088 53.8584 42.5 53.8584H50C50.6912 53.8584 51.25 54.4184 51.25 55.1084C51.25 55.7984 50.6912 56.3584 50 56.3584Z" fill="url(#paint15_linear_2240_1469)"/>
<path d="M62.5 56.3584H55C54.3088 56.3584 53.75 55.7984 53.75 55.1084C53.75 54.4184 54.3088 53.8584 55 53.8584H62.5C63.1912 53.8584 63.75 54.4184 63.75 55.1084C63.75 55.7984 63.1912 56.3584 62.5 56.3584Z" fill="url(#paint16_linear_2240_1469)"/>
<path d="M37.5 56.3584H30C29.31 56.3584 28.75 55.7984 28.75 55.1084C28.75 54.4184 29.31 53.8584 30 53.8584H37.5C38.19 53.8584 38.75 54.4184 38.75 55.1084C38.75 55.7984 38.19 56.3584 37.5 56.3584Z" fill="url(#paint17_linear_2240_1469)"/>
<path d="M25 56.3584H17.5C16.81 56.3584 16.25 55.7984 16.25 55.1084C16.25 54.4184 16.81 53.8584 17.5 53.8584H25C25.69 53.8584 26.25 54.4184 26.25 55.1084C26.25 55.7984 25.69 56.3584 25 56.3584Z" fill="url(#paint18_linear_2240_1469)"/>
<path d="M67.5 68.8584H12.5C11.81 68.8584 11.25 68.2984 11.25 67.6084V60.1084C11.25 59.4184 11.81 58.8584 12.5 58.8584H67.5C68.1912 58.8584 68.75 59.4184 68.75 60.1084V67.6084C68.75 68.2984 68.1912 68.8584 67.5 68.8584ZM13.75 66.3584H66.25V61.3584H13.75V66.3584Z" fill="url(#paint19_linear_2240_1469)"/>
<path fill-rule="evenodd" clip-rule="evenodd" d="M37.7843 18.1676C37.8269 18.1248 37.8482 18.1033 37.871 18.0852C37.9439 18.0272 38.0316 17.9908 38.1241 17.9799C38.1531 17.9766 38.1833 17.9766 38.2436 17.9766H40.0905C40.2003 17.9766 40.306 18.0189 40.3855 18.0947L41.6944 19.3429C41.9838 19.6188 42.1285 19.7568 42.1533 19.9277C42.1596 19.9714 42.1602 20.0157 42.1549 20.0595C42.1341 20.2309 41.9928 20.3723 41.71 20.6551C41.4401 20.9249 41.3052 21.0599 41.1401 21.0834C41.0978 21.0895 41.055 21.09 41.0125 21.0852C40.8469 21.0662 40.7083 20.935 40.4311 20.6726L37.7843 18.1676Z" fill="url(#paint20_linear_2240_1469)"/>
<path fill-rule="evenodd" clip-rule="evenodd" d="M40.3855 18.0947C40.306 18.0189 40.2003 17.9766 40.0905 17.9766H38.2436C38.1833 17.9766 38.1531 17.9766 38.1241 17.9799C38.0316 17.9908 37.9439 18.0272 37.871 18.0852C37.8482 18.1033 37.8269 18.1248 37.7843 18.1676L33.8967 22.0773C33.3456 22.6316 33.0701 22.9087 33.1008 23.1509C33.1121 23.2402 33.1472 23.3247 33.2025 23.3956C33.3526 23.5881 33.7434 23.5881 34.5251 23.5881C34.6826 23.5881 34.7613 23.5881 34.8343 23.5653C34.8627 23.5564 34.8904 23.545 34.9168 23.5311C34.9845 23.4957 35.0402 23.44 35.1516 23.3286L40.3855 18.0947Z" fill="url(#paint21_linear_2240_1469)"/>
<path fill-rule="evenodd" clip-rule="evenodd" d="M42.2157 24.5482C42.1731 24.5911 42.1518 24.6125 42.129 24.6306C42.0561 24.6886 41.9684 24.725 41.8759 24.7359C41.8469 24.7393 41.8167 24.7393 41.7564 24.7393H39.9095C39.7997 24.7393 39.694 24.697 39.6145 24.6212L38.3056 23.373C38.0162 23.097 37.8715 22.959 37.8467 22.7881C37.8404 22.7445 37.8398 22.7001 37.8451 22.6563C37.8659 22.4849 38.0072 22.3435 38.29 22.0608C38.5599 21.7909 38.6948 21.6559 38.8599 21.6324C38.9022 21.6264 38.945 21.6258 38.9875 21.6306C39.1531 21.6496 39.2917 21.7808 39.5689 22.0432L42.2157 24.5482Z" fill="url(#paint22_linear_2240_1469)"/>
<path fill-rule="evenodd" clip-rule="evenodd" d="M39.6145 24.6212C39.694 24.697 39.7997 24.7393 39.9095 24.7393H41.7564C41.8167 24.7393 41.8469 24.7393 41.8759 24.7359C41.9684 24.725 42.0561 24.6886 42.129 24.6306C42.1518 24.6125 42.1731 24.5911 42.2157 24.5482L46.1033 20.6385C46.6544 20.0842 46.9299 19.8071 46.8992 19.5649C46.8879 19.4757 46.8528 19.3911 46.7975 19.3202C46.6474 19.1277 46.2566 19.1277 45.4749 19.1277C45.3174 19.1277 45.2387 19.1277 45.1657 19.1505C45.1373 19.1594 45.1096 19.1709 45.0832 19.1847C45.0155 19.2201 44.9598 19.2758 44.8484 19.3872L39.6145 24.6212Z" fill="url(#paint23_linear_2240_1469)"/>
<defs>
<linearGradient id="paint0_linear_2240_1469" x1="36.5158" y1="50.525" x2="38.5168" y2="50.4327" gradientUnits="userSpaceOnUse">
<stop stop-color="#047CFD"/>
<stop offset="1" stop-color="#31B8F7"/>
</linearGradient>
<linearGradient id="paint1_linear_2240_1469" x1="41.5158" y1="50.525" x2="43.5168" y2="50.4327" gradientUnits="userSpaceOnUse">
<stop stop-color="#047CFD"/>
<stop offset="1" stop-color="#31B8F7"/>
</linearGradient>
<linearGradient id="paint2_linear_2240_1469" x1="49.0158" y1="50.525" x2="51.0168" y2="50.4327" gradientUnits="userSpaceOnUse">
<stop stop-color="#047CFD"/>
<stop offset="1" stop-color="#31B8F7"/>
</linearGradient>
<linearGradient id="paint3_linear_2240_1469" x1="54.0158" y1="50.525" x2="56.0168" y2="50.4327" gradientUnits="userSpaceOnUse">
<stop stop-color="#047CFD"/>
<stop offset="1" stop-color="#31B8F7"/>
</linearGradient>
<linearGradient id="paint4_linear_2240_1469" x1="24.0158" y1="50.525" x2="26.0168" y2="50.4327" gradientUnits="userSpaceOnUse">
<stop stop-color="#047CFD"/>
<stop offset="1" stop-color="#31B8F7"/>
</linearGradient>
<linearGradient id="paint5_linear_2240_1469" x1="16.5158" y1="50.525" x2="18.5168" y2="50.4327" gradientUnits="userSpaceOnUse">
<stop stop-color="#047CFD"/>
<stop offset="1" stop-color="#31B8F7"/>
</linearGradient>
<linearGradient id="paint6_linear_2240_1469" x1="61.5158" y1="50.525" x2="63.5168" y2="50.4327" gradientUnits="userSpaceOnUse">
<stop stop-color="#047CFD"/>
<stop offset="1" stop-color="#31B8F7"/>
</linearGradient>
<linearGradient id="paint7_linear_2240_1469" x1="54.8134" y1="35.7102" x2="56.946" y2="32.1666" gradientUnits="userSpaceOnUse">
<stop stop-color="#047CFD"/>
<stop offset="1" stop-color="#31B8F7"/>
</linearGradient>
<linearGradient id="paint8_linear_2240_1469" x1="42.3134" y1="35.7102" x2="44.446" y2="32.1666" gradientUnits="userSpaceOnUse">
<stop stop-color="#047CFD"/>
<stop offset="1" stop-color="#31B8F7"/>
</linearGradient>
<linearGradient id="paint9_linear_2240_1469" x1="29.8134" y1="35.7102" x2="31.946" y2="32.1666" gradientUnits="userSpaceOnUse">
<stop stop-color="#047CFD"/>
<stop offset="1" stop-color="#31B8F7"/>
</linearGradient>
<linearGradient id="paint10_linear_2240_1469" x1="17.3134" y1="35.7102" x2="19.446" y2="32.1666" gradientUnits="userSpaceOnUse">
<stop stop-color="#047CFD"/>
<stop offset="1" stop-color="#31B8F7"/>
</linearGradient>
<linearGradient id="paint11_linear_2240_1469" x1="29.0158" y1="50.525" x2="31.0168" y2="50.4327" gradientUnits="userSpaceOnUse">
<stop stop-color="#047CFD"/>
<stop offset="1" stop-color="#31B8F7"/>
</linearGradient>
<linearGradient id="paint12_linear_2240_1469" x1="17.3645" y1="28.7658" x2="24.2425" y2="12.337" gradientUnits="userSpaceOnUse">
<stop stop-color="#047CFD"/>
<stop offset="1" stop-color="#31B8F7"/>
</linearGradient>
<linearGradient id="paint13_linear_2240_1469" x1="41.9393" y1="20.6173" x2="54.009" y2="8.58551" gradientUnits="userSpaceOnUse">
<stop stop-color="#047CFD"/>
<stop offset="1" stop-color="#31B8F7"/>
</linearGradient>
<linearGradient id="paint14_linear_2240_1469" x1="14.4403" y1="20.6168" x2="26.5093" y2="8.58524" gradientUnits="userSpaceOnUse">
<stop stop-color="#047CFD"/>
<stop offset="1" stop-color="#31B8F7"/>
</linearGradient>
<linearGradient id="paint15_linear_2240_1469" x1="42.3134" y1="55.7102" x2="44.446" y2="52.1666" gradientUnits="userSpaceOnUse">
<stop stop-color="#047CFD"/>
<stop offset="1" stop-color="#31B8F7"/>
</linearGradient>
<linearGradient id="paint16_linear_2240_1469" x1="54.8134" y1="55.7102" x2="56.946" y2="52.1666" gradientUnits="userSpaceOnUse">
<stop stop-color="#047CFD"/>
<stop offset="1" stop-color="#31B8F7"/>
</linearGradient>
<linearGradient id="paint17_linear_2240_1469" x1="29.8134" y1="55.7102" x2="31.946" y2="52.1666" gradientUnits="userSpaceOnUse">
<stop stop-color="#047CFD"/>
<stop offset="1" stop-color="#31B8F7"/>
</linearGradient>
<linearGradient id="paint18_linear_2240_1469" x1="17.3134" y1="55.7102" x2="19.446" y2="52.1666" gradientUnits="userSpaceOnUse">
<stop stop-color="#047CFD"/>
<stop offset="1" stop-color="#31B8F7"/>
</linearGradient>
<linearGradient id="paint19_linear_2240_1469" x1="17.3645" y1="66.2658" x2="24.2425" y2="49.837" gradientUnits="userSpaceOnUse">
<stop stop-color="#047CFD"/>
<stop offset="1" stop-color="#31B8F7"/>
</linearGradient>
<linearGradient id="paint20_linear_2240_1469" x1="33.4557" y1="22.1333" x2="38.634" y2="18.3078" gradientUnits="userSpaceOnUse">
<stop stop-color="#047CFD"/>
<stop offset="1" stop-color="#31B8F7"/>
</linearGradient>
<linearGradient id="paint21_linear_2240_1469" x1="33.4557" y1="22.1333" x2="38.634" y2="18.3078" gradientUnits="userSpaceOnUse">
<stop stop-color="#047CFD"/>
<stop offset="1" stop-color="#31B8F7"/>
</linearGradient>
<linearGradient id="paint22_linear_2240_1469" x1="46.5443" y1="20.5826" x2="41.366" y2="24.408" gradientUnits="userSpaceOnUse">
<stop stop-color="#047CFD"/>
<stop offset="1" stop-color="#31B8F7"/>
</linearGradient>
<linearGradient id="paint23_linear_2240_1469" x1="46.5443" y1="20.5826" x2="41.366" y2="24.408" gradientUnits="userSpaceOnUse">
<stop stop-color="#047CFD"/>
<stop offset="1" stop-color="#31B8F7"/>
</linearGradient>
</defs>
</svg>
