<svg width="12" height="7" viewBox="0 0 12 7" fill="none" xmlns="http://www.w3.org/2000/svg">
<path d="M11.2038 0.669699C11.0164 0.483448 10.763 0.378906 10.4988 0.378906C10.2346 0.378906 9.98117 0.483448 9.79381 0.669699L6.20381 4.2097L2.66381 0.669699C2.47644 0.483448 2.22299 0.378906 1.95881 0.378906C1.69462 0.378906 1.44117 0.483448 1.25381 0.669699C1.16008 0.762662 1.08568 0.873263 1.03491 0.995122C0.984146 1.11698 0.958008 1.24769 0.958008 1.3797C0.958008 1.51171 0.984146 1.64242 1.03491 1.76428C1.08568 1.88613 1.16008 1.99674 1.25381 2.0897L5.49381 6.3297C5.58677 6.42343 5.69737 6.49782 5.81923 6.54859C5.94109 6.59936 6.07179 6.6255 6.20381 6.6255C6.33582 6.6255 6.46652 6.59936 6.58838 6.54859C6.71024 6.49782 6.82084 6.42343 6.91381 6.3297L11.2038 2.0897C11.2975 1.99674 11.3719 1.88613 11.4227 1.76428C11.4735 1.64242 11.4996 1.51171 11.4996 1.3797C11.4996 1.24769 11.4735 1.11698 11.4227 0.995122C11.3719 0.873263 11.2975 0.762662 11.2038 0.669699Z" fill="#A3A2B8"/>
</svg>
