<svg width="176" height="41" viewBox="0 0 176 41" fill="none" xmlns="http://www.w3.org/2000/svg">
<mask id="mask0_2198_54422" style="mask-type:alpha" maskUnits="userSpaceOnUse" x="0" y="0" width="176" height="41">
<path d="M0.664062 0.941406H175.337V40.9414H0.664062V0.941406Z" fill="white"/>
</mask>
<g mask="url(#mask0_2198_54422)">
<path fill-rule="evenodd" clip-rule="evenodd" d="M145.27 12.829H150.23V7.86719H145.27V12.829ZM118.903 21.092C119.851 18.5779 122.278 16.7879 125.124 16.7879C127.97 16.7879 130.397 18.5779 131.346 21.092H118.903ZM125.124 12.1746C118.906 12.1746 113.864 17.2173 113.864 23.438C113.864 29.6588 118.906 34.7006 125.124 34.7006C129.391 34.7006 133.103 32.3276 135.014 28.8297L130.853 26.8106C129.697 28.7712 127.565 30.0874 125.124 30.0874C122.041 30.0874 119.449 27.9878 118.697 25.1401H131.551C131.551 25.1422 131.55 25.1451 131.55 25.1476H136.258C136.343 24.5899 136.387 24.019 136.387 23.438C136.387 17.2173 131.344 12.1746 125.124 12.1746ZM137.694 34.1002H142.655V29.1384H137.694V34.1002ZM145.27 34.1002H150.23V15.0103H145.27V34.1002ZM164.076 30.0874C160.404 30.0874 157.428 27.1102 157.428 23.438C157.428 19.765 160.404 16.7879 164.076 16.7879C167.748 16.7879 170.724 19.765 170.724 23.438C170.724 27.1102 167.748 30.0874 164.076 30.0874ZM164.074 12.1746C157.856 12.1746 152.814 17.2173 152.814 23.438C152.814 29.6588 157.856 34.7006 164.074 34.7006C170.294 34.7006 175.336 29.6588 175.336 23.438C175.336 17.2173 170.294 12.1746 164.074 12.1746ZM60.3588 19.2862V24.4165H67.2949C66.9328 25.8824 66.2168 27.1961 65.19 28.2455C63.6414 29.8285 61.4942 30.7007 59.1433 30.7007C54.2652 30.7007 50.2961 26.731 50.2961 21.8513C50.2961 16.9717 54.2652 13.0016 59.1433 13.0016C61.7564 13.0016 64.1583 14.1203 65.8235 16.0497L69.7947 12.8041C67.1618 9.7178 63.2552 7.87092 59.1433 7.87092C51.4369 7.87092 45.167 14.1427 45.167 21.8513C45.167 29.56 51.4369 35.8313 59.1433 35.8313C62.8852 35.8313 66.3346 34.4828 68.8564 31.9052C70.9725 29.7417 72.375 26.7239 72.6447 23.7007C72.7762 22.226 72.7882 20.7613 72.7107 19.2862H60.3588ZM85.6258 30.0886C81.9541 30.0886 78.9772 27.1106 78.9772 23.438C78.9772 19.7646 81.9541 16.7875 85.6258 16.7875C89.298 16.7875 92.2749 19.7646 92.2749 23.438C92.2749 27.1106 89.298 30.0886 85.6258 30.0886ZM92.2757 14.3696C90.4118 13.0028 88.1136 12.1937 85.6258 12.1937C79.4078 12.1937 74.3671 17.236 74.3671 23.4555C74.3671 29.6758 79.4078 34.7172 85.6258 34.7172C88.1136 34.7172 90.4118 33.9085 92.2757 32.5417V34.1002H96.885V12.8111H92.2757V14.3696ZM106.78 7.8676H102.17V12.829H99.4072V17.1804H102.17V28.5679C102.17 29.7438 102.318 30.733 102.611 31.5094C102.899 32.2774 103.341 32.8787 103.865 33.3484C104.397 33.8251 105.021 34.1965 105.761 34.4073C106.513 34.6189 107.342 34.7006 108.218 34.7006C109.126 34.7006 109.935 34.6064 110.625 34.4201C111.266 34.2479 111.88 34.0044 112.452 33.6948V30.1886C111.543 30.582 110.692 30.7243 109.723 30.7695C108.699 30.8177 108.093 30.5251 107.589 30.0446C107.061 29.5413 106.78 28.8853 106.78 27.7849V17.1804H112.452V12.829H106.78V7.8676Z" fill="white"/>
<path fill-rule="evenodd" clip-rule="evenodd" d="M20.6597 31.9416C14.5861 31.9416 9.66234 27.0172 9.66234 20.9417C9.66234 14.8666 14.5861 9.94135 20.6597 9.94135V0.941406C9.61629 0.941406 0.664062 9.89571 0.664062 20.9417C0.664062 31.9873 9.61629 40.9416 20.6597 40.9416C31.7027 40.9416 40.6554 31.9873 40.6554 20.9417H31.6571C31.6571 27.0172 26.7334 31.9416 20.6597 31.9416Z" fill="#2354E6"/>
<path fill-rule="evenodd" clip-rule="evenodd" d="M20.6592 20.9413H31.6566V9.94141H20.6592V20.9413Z" fill="#17E6A1"/>
</g>
</svg>
