<svg width="227" height="216" viewBox="0 0 227 216" fill="none" xmlns="http://www.w3.org/2000/svg">
<g opacity="0.5">
<path d="M226.732 215.822V215.952L226.744 215.881L226.732 215.739V215.822Z" fill="white"/>
<path d="M225.822 202.272C225.824 202.622 225.864 202.971 225.94 203.312C225.952 203.175 225.952 203.036 225.94 202.899C225.925 202.688 225.894 202.478 225.846 202.272H225.822Z" fill="white"/>
<path d="M224.074 188.922C224.132 189.56 224.243 190.192 224.405 190.812C224.394 190.562 224.363 190.313 224.31 190.068C224.264 189.669 224.189 189.275 224.086 188.887L224.074 188.922Z" fill="white"/>
<path d="M221.522 175.807C221.667 176.7 221.864 177.583 222.113 178.453C222.113 178.453 222.113 178.453 221.936 177.425C221.759 176.397 221.558 175.866 221.522 175.807Z" fill="white"/>
<path d="M218.19 162.918C218.19 163.024 219.029 166.001 219.147 166.297C219.064 165.848 218.95 165.406 218.805 164.974C218.45 163.792 218.214 162.989 218.19 162.918Z" fill="white"/>
<path d="M214.079 150.292C214.079 150.422 215.343 153.954 215.485 154.344C215.457 154.228 215.421 154.113 215.379 154.002L214.198 150.705C214.138 150.564 214.091 150.422 214.044 150.292H214.079Z" fill="white"/>
<path d="M209.437 138.336L211.079 142.305L209.39 138.241V138.336H209.437Z" fill="white"/>
<path d="M225.208 212.87L225.267 213.189L225.291 212.988L225.243 212.681L225.208 212.87Z" fill="white"/>
<path d="M224.322 199.34C224.322 199.34 224.263 199.6 224.322 199.978C224.338 200.21 224.394 200.438 224.488 200.651C224.488 200.651 224.488 200.32 224.488 200.131C224.48 199.86 224.424 199.592 224.322 199.34Z" fill="white"/>
<path d="M222.573 186.049C222.554 186.789 222.687 187.524 222.963 188.211C222.963 188.211 223.034 188.069 222.963 187.337C222.927 186.894 222.811 186.462 222.62 186.061L222.573 186.049Z" fill="white"/>
<path d="M220.069 172.984C220.113 174.013 220.354 175.024 220.778 175.961C220.778 175.961 220.849 175.713 220.648 174.78C220.557 174.159 220.366 173.556 220.081 172.996L220.069 172.984Z" fill="white"/>
<path d="M216.702 160.177C216.883 161.462 217.257 162.713 217.813 163.886C217.813 163.886 217.895 163.733 217.529 162.398C217.353 161.631 217.083 160.889 216.726 160.189L216.702 160.177Z" fill="white"/>
<path d="M212.591 147.599C212.913 149.158 213.441 150.668 214.162 152.088C214.162 152.088 214.233 151.899 213.678 150.28C213.404 149.365 213.031 148.481 212.567 147.646L212.591 147.599Z" fill="white"/>
<path d="M207.747 135.346C208.282 137.11 209.011 138.81 209.921 140.414C209.921 140.414 209.921 140.189 209.212 138.358C208.825 137.316 208.342 136.311 207.771 135.358L207.747 135.346Z" fill="white"/>
<path d="M202.194 123.447C202.959 125.37 203.88 127.227 204.947 129C204.673 128.22 204.341 127.462 203.955 126.732C203.455 125.59 202.863 124.491 202.183 123.447H202.194Z" fill="white"/>
<path d="M195.945 111.917C196.946 113.992 198.079 116 199.336 117.93C199.336 117.93 199.336 117.765 198.072 115.461C197.424 114.244 196.714 113.061 195.945 111.917Z" fill="white"/>
<path d="M189.022 100.755C189.117 101.204 192.862 106.839 193.11 107.123C192.66 106.207 192.13 105.334 191.527 104.512C189.944 102.031 189.164 100.826 189.022 100.755Z" fill="white"/>
<path d="M181.438 90.0156C181.638 90.4291 185.844 96.1825 186.269 96.6787C186.165 96.486 186.043 96.304 185.903 96.1352L183.54 92.8864L181.886 90.6536C181.761 90.4395 181.61 90.2412 181.438 90.0629V90.0156Z" fill="white"/>
<path d="M173.286 79.8076C174.172 80.9181 178.425 86.128 178.768 86.5415L173.298 79.8194L173.286 79.8076Z" fill="white"/>
<path d="M164.862 70.4289C165.666 71.2795 169.21 75.1545 170.344 76.4185L164.839 70.4053L164.862 70.4289Z" fill="white"/>
<path d="M156.923 62.4547C157.975 63.4589 159.286 64.7229 160.302 65.7507L156.853 62.3838C156.853 62.3838 156.912 62.3838 156.923 62.4547Z" fill="white"/>
<path d="M222.893 210.009L222.975 210.399L223.023 210.162L222.952 209.761L222.893 210.009Z" fill="white"/>
<path d="M222.018 196.484C221.877 196.413 221.936 197.323 222.101 197.819C222.101 197.997 222.207 198.044 222.243 197.973C222.288 197.783 222.288 197.584 222.243 197.394C222.184 196.815 222.066 196.508 221.995 196.484H222.018Z" fill="white"/>
<path d="M220.282 183.346C220.069 183.24 220.211 184.527 220.506 185.39C220.624 185.709 220.731 185.827 220.778 185.697C220.845 185.389 220.845 185.071 220.778 184.764C220.624 183.866 220.423 183.393 220.317 183.346H220.282Z" fill="white"/>
<path d="M217.706 170.457C217.447 170.339 217.706 172.123 218.179 173.139C218.333 173.517 218.462 173.67 218.522 173.564C218.581 173.457 218.616 173.257 218.403 172.312C218.329 171.645 218.089 171.008 217.706 170.457Z" fill="white"/>
<path d="M214.446 157.746C214.127 157.628 214.599 159.648 215.19 160.96C215.426 161.515 215.615 161.763 215.686 161.609C215.757 161.456 215.757 161.219 215.426 160.038C215.273 159.211 214.938 158.428 214.446 157.746Z" fill="white"/>
<path d="M210.37 145.306C210.016 145.188 210.736 147.586 211.551 149.134C211.87 149.783 212.107 150.067 212.166 149.878C212.225 149.689 212.166 149.417 211.729 148C211.481 147.019 211.03 146.101 210.405 145.306H210.37Z" fill="white"/>
<path d="M205.55 133.183C205.171 133.525 207.357 138.44 207.912 138.487C208.054 138.369 207.83 137.589 207.298 136.278C206.934 135.147 206.357 134.096 205.597 133.183H205.55Z" fill="white"/>
<path d="M199.985 121.369C199.631 121.783 202.419 127.205 202.998 127.276C203.116 127.134 202.809 126.26 202.1 124.795C201.606 123.536 200.89 122.375 199.985 121.369Z" fill="white"/>
<path d="M193.795 109.873C193.511 110.357 196.961 116.253 197.528 116.241C197.646 116.075 197.209 115.059 196.347 113.512C195.712 112.173 194.866 110.944 193.842 109.873H193.795Z" fill="white"/>
<path d="M186.896 98.7931C186.683 99.3247 190.853 105.621 191.408 105.586C191.074 104.53 190.553 103.542 189.873 102.668C189.081 101.24 188.09 99.9313 186.931 98.7812L186.896 98.7931Z" fill="white"/>
<path d="M179.382 88.1846C179.264 88.7753 184.108 95.2729 184.651 95.2729C184.174 94.1658 183.537 93.1349 182.761 92.2131C181.82 90.7421 180.697 89.3964 179.417 88.2082L179.382 88.1846Z" fill="white"/>
<path d="M171.242 78.0372C172.957 80.6527 174.971 83.0592 177.244 85.2082C176.592 84.1005 175.832 83.0598 174.975 82.1012C173.883 80.6071 172.627 79.24 171.23 78.0254L171.242 78.0372Z" fill="white"/>
<path d="M162.57 68.4444C162.441 68.9997 168.655 75.3556 169.198 75.5328C168.424 74.437 167.563 73.4058 166.623 72.4493C165.382 70.9958 164.018 69.6519 162.547 68.4326L162.57 68.4444Z" fill="white"/>
<path d="M153.462 59.4639C153.462 60.0191 159.983 66.0206 160.491 66.2332C159.668 65.1395 158.729 64.1374 157.691 63.2443C156.372 61.8869 154.958 60.6237 153.462 59.4639Z" fill="white"/>
<path d="M143.881 51.0635C144.046 51.6069 150.674 57.0886 151.111 57.2658C151.111 57.2067 151.111 57.0413 148.146 54.5131C146.796 53.277 145.372 52.1249 143.881 51.0635Z" fill="white"/>
<path d="M133.91 43.291C136.196 45.2382 138.586 47.0602 141.069 48.749C140.151 47.8418 139.146 47.0267 138.069 46.3154C135.812 44.5905 134.135 43.3737 133.91 43.291Z" fill="white"/>
<path d="M123.49 36.0716C123.821 36.4496 129.681 40.36 130.401 40.7971C129.631 40.1138 128.8 39.501 127.92 38.966L126.231 37.7846C125.298 37.1703 123.703 36.107 123.502 36.0361L123.49 36.0716Z" fill="white"/>
<path d="M112.562 29.4326C112.976 29.7516 118.552 33.0358 119.178 33.3548C118.919 33.1435 118.638 32.9613 118.34 32.8114L113.508 29.9288C113.22 29.736 112.916 29.57 112.598 29.4326H112.562Z" fill="white"/>
<path d="M101.304 23.3857C101.765 23.6575 106.88 26.292 107.447 26.5637L107.294 26.481L103.749 24.6498L101.458 23.4684L101.269 23.3857H101.304Z" fill="white"/>
<path d="M89.585 17.9629L95.1848 20.4556L89.585 17.9747V17.9629Z" fill="white"/>
<path d="M77.6762 13.2619C78.763 13.6518 81.7401 14.7741 82.2363 14.9749L77.6289 13.2383L77.6762 13.2619Z" fill="white"/>
<path d="M66.2758 9.45555L68.0243 9.99899L66.0986 9.39648H66.2758V9.45555Z" fill="white"/>
<path d="M219.857 206.926C219.762 206.926 219.75 207.434 219.857 207.658C219.963 207.883 219.939 207.753 219.963 207.658C219.98 207.573 219.98 207.484 219.963 207.399C219.963 207.103 219.868 206.926 219.821 206.902L219.857 206.926Z" fill="white"/>
<path d="M218.946 193.814C218.722 193.743 218.781 194.889 219.029 195.361C219.124 195.539 219.206 195.562 219.254 195.42C219.288 195.225 219.288 195.025 219.254 194.83C219.195 194.192 219.017 193.849 218.923 193.814H218.946Z" fill="white"/>
<path d="M217.222 180.876C216.903 180.781 217.104 182.471 217.506 183.239C217.636 183.475 217.742 183.51 217.813 183.345C217.867 183.036 217.867 182.72 217.813 182.412C217.647 181.467 217.376 180.97 217.234 180.923L217.222 180.876Z" fill="white"/>
<path d="M214.718 168.129C214.304 168.034 214.718 170.267 215.273 171.177C215.462 171.472 215.604 171.519 215.663 171.295C215.71 170.899 215.677 170.497 215.568 170.114C215.273 168.861 214.895 168.223 214.718 168.176V168.129Z" fill="white"/>
<path d="M211.433 155.63C210.925 155.535 211.61 158.264 212.366 159.375C212.614 159.741 212.791 159.788 212.839 159.505C212.853 158.988 212.777 158.472 212.614 157.981C212.154 156.433 211.657 155.618 211.433 155.618V155.63Z" fill="white"/>
<path d="M207.405 143.333C206.826 143.25 207.842 146.475 208.799 147.763C209.07 148.129 209.271 148.212 209.33 147.964C209.343 147.309 209.21 146.659 208.94 146.062C208.291 144.242 207.653 143.368 207.405 143.333Z" fill="white"/>
<path d="M202.644 131.341C202.006 131.341 203.412 134.956 204.569 136.385C204.912 136.799 205.137 136.882 205.172 136.598C205.14 135.844 204.942 135.106 204.593 134.436C203.695 132.345 202.916 131.376 202.644 131.341Z" fill="white"/>
<path d="M197.185 119.692C196.488 119.692 198.367 123.733 199.714 125.28C200.115 125.729 200.363 125.812 200.375 125.493C200.264 124.633 199.978 123.805 199.536 123.059C198.355 120.697 197.469 119.704 197.174 119.692H197.185Z" fill="white"/>
<path d="M191.019 108.375C190.275 108.375 192.897 113.255 194.398 114.649C194.622 114.861 194.988 115.145 194.965 114.649C194.741 113.689 194.34 112.78 193.783 111.967C192.354 109.45 191.279 108.328 190.972 108.328L191.019 108.375Z" fill="white"/>
<path d="M184.179 97.4134C183.387 97.4134 186.542 102.659 188.349 104.183C188.609 104.395 189.022 104.679 188.952 104.183C188.63 103.142 188.134 102.164 187.487 101.288C185.715 98.583 184.486 97.3898 184.179 97.4134Z" fill="white"/>
<path d="M176.712 86.9096C175.908 87.0278 179.736 92.474 181.697 93.998C182.111 94.3287 182.335 94.3642 182.323 94.1161C182.312 93.868 182.111 93.1946 180.492 90.9145C178.401 88.0674 177.019 86.8506 176.712 86.8978V86.9096Z" fill="white"/>
<path d="M168.631 76.8672C167.816 77.0444 172.695 83.1167 174.644 84.3336C174.987 84.5462 175.14 84.5344 175.093 84.3336C175.046 84.1327 174.762 83.353 172.872 81.002C170.45 78.0722 168.926 76.8436 168.631 76.9144V76.8672Z" fill="white"/>
<path d="M160.008 67.3578C159.228 67.6059 165.265 74.1862 166.954 74.9305C167.131 75.0014 167.179 74.9305 167.226 74.9305C167.32 74.5761 166.399 73.3238 164.65 71.3863C161.921 68.4329 160.291 67.2397 160.008 67.3224V67.3578Z" fill="white"/>
<path d="M151.005 58.5207C150.32 58.816 156.747 65.0656 158.4 65.7035C158.578 65.7744 158.625 65.7035 158.66 65.7035C158.66 65.3491 157.668 64.1323 155.801 62.3011C152.907 59.5131 151.253 58.4026 151.005 58.5089V58.5207Z" fill="white"/>
<path d="M141.613 50.3066C141.389 50.602 143.48 52.5513 144.945 53.7917C147.048 55.5638 149.044 56.9579 149.328 56.8397C149.328 56.4853 148.241 55.3866 146.339 53.7209C143.917 51.6534 142.015 50.2948 141.613 50.3421V50.3066Z" fill="white"/>
<path d="M131.831 42.6886C131.831 43.6337 138.825 48.4184 139.368 48.3711C139.368 48.0876 138.388 47.1897 136.379 45.5948C134.017 43.8228 132.174 42.6296 131.831 42.6886Z" fill="white"/>
<path d="M121.576 35.6123C121.73 36.4747 128.381 40.5151 128.83 40.4324C128.83 40.1843 127.802 39.3691 125.865 38.0696C124.557 37.0604 123.113 36.2411 121.576 35.6359V35.6123Z" fill="white"/>
<path d="M110.908 29.1143C111.192 29.894 117.37 33.19 117.725 33.0955C116.878 32.2807 115.91 31.6031 114.854 31.0872C113.637 30.2485 112.309 29.5844 110.908 29.1143Z" fill="white"/>
<path d="M99.7686 23.1631C100.088 23.7302 105.451 26.3646 106.101 26.4119C105.256 25.7668 104.34 25.2198 103.372 24.7816C102.23 24.1259 101.022 23.5914 99.7686 23.1867V23.1631Z" fill="white"/>
<path d="M88.2021 17.8203C90.0226 18.8885 91.9613 19.7409 93.9791 20.3603C93.1775 19.8442 92.3267 19.4089 91.4391 19.0608C90.4054 18.5623 89.3251 18.1666 88.214 17.8794L88.2021 17.8203Z" fill="white"/>
<path d="M76.2464 13.1064C77.8896 13.9242 79.6113 14.5733 81.3854 15.0439C80.6297 14.6417 79.8388 14.3095 79.0226 14.0516C78.1152 13.6658 77.174 13.3652 76.2109 13.1537L76.2464 13.1064Z" fill="white"/>
<path d="M63.9014 9.04199C65.3157 9.62792 66.7835 10.075 68.2843 10.377C67.644 10.0689 66.9754 9.82359 66.2878 9.6445C65.5189 9.37618 64.7284 9.1746 63.925 9.04199H63.9014Z" fill="white"/>
<path d="M51.1309 5.65234C52.3112 6.05172 53.525 6.3443 54.7577 6.52657C54.2045 6.31706 53.6357 6.15116 53.0565 6.03039C52.4269 5.84862 51.7825 5.72213 51.1309 5.65234Z" fill="white"/>
<path d="M38.3359 3.01953C39.2295 3.26363 40.1426 3.42965 41.0649 3.51571C40.6366 3.38459 40.1979 3.28974 39.7536 3.23218C39.2872 3.12927 38.813 3.06603 38.3359 3.04316V3.01953Z" fill="white"/>
<path d="M25.5176 1.15274C26.1212 1.27283 26.7336 1.34395 27.3487 1.36539C27.0584 1.29095 26.7618 1.24349 26.4627 1.22362C26.1507 1.16892 25.8342 1.14518 25.5176 1.15274Z" fill="white"/>
<path d="M12.7354 0.0175737C13.0498 0.0445493 13.366 0.0445493 13.6804 0.0175737H13.2197C13.0591 -0.00585789 12.896 -0.00585789 12.7354 0.0175737Z" fill="white"/>
<path d="M216.029 204.22C215.863 204.22 215.875 204.763 216.029 205.023C216.182 205.283 216.159 205.189 216.206 205.023C216.221 204.929 216.221 204.834 216.206 204.74C216.206 204.374 216.088 204.208 216.029 204.185V204.22Z" fill="white"/>
<path d="M215.131 191.391C214.859 191.32 214.882 192.348 215.131 192.868C215.261 193.092 215.39 193.116 215.45 192.868C215.484 192.692 215.484 192.512 215.45 192.336C215.379 191.698 215.19 191.379 215.071 191.344L215.131 191.391Z" fill="white"/>
<path d="M213.43 178.642C213.005 178.548 213.194 180.261 213.69 181.005C213.879 181.289 214.044 181.277 214.115 181.005C214.159 180.731 214.159 180.452 214.115 180.178C213.95 179.221 213.619 178.725 213.454 178.69L213.43 178.642Z" fill="white"/>
<path d="M210.961 166.12C210.429 166.038 210.819 168.294 211.48 169.18C211.752 169.535 211.965 169.511 212.024 169.121C212.047 168.756 212.015 168.39 211.929 168.034C211.634 166.77 211.185 166.156 210.961 166.12Z" fill="white"/>
<path d="M207.723 153.775C207.062 153.704 207.723 156.492 208.621 157.602C208.976 158.039 209.236 157.992 209.271 157.484C209.264 157.024 209.192 156.566 209.058 156.125C208.598 154.554 207.995 153.763 207.723 153.763V153.775Z" fill="white"/>
<path d="M203.766 141.736C202.998 141.736 203.979 144.95 205.113 146.202C205.42 146.545 205.775 146.722 205.822 146.202C205.809 145.608 205.693 145.02 205.479 144.465C204.818 142.646 204.073 141.807 203.766 141.784V141.736Z" fill="white"/>
<path d="M199.075 129.956C198.236 129.956 199.607 133.677 200.954 135.048C201.438 135.544 201.745 135.509 201.757 134.953C201.685 134.267 201.501 133.596 201.214 132.969C200.328 130.889 199.43 129.956 199.075 129.956Z" fill="white"/>
<path d="M193.677 118.463C192.743 118.534 194.799 123.059 196.335 124.299C196.819 124.701 197.091 124.595 197.044 124.016C196.91 123.237 196.655 122.483 196.287 121.783C195.106 119.42 194.055 118.44 193.677 118.463Z" fill="white"/>
<path d="M187.616 107.335C186.612 107.477 189.234 112.415 190.983 113.714C191.55 114.128 191.81 113.998 191.715 113.348C191.489 112.481 191.143 111.65 190.688 110.879C189.234 108.351 188.018 107.335 187.616 107.335Z" fill="white"/>
<path d="M180.882 96.5599C179.854 96.7726 183.079 102.077 185.04 103.4C185.667 103.825 185.938 103.66 185.773 102.963C185.46 102.023 185.023 101.129 184.473 100.305C182.689 97.5878 181.295 96.4772 180.929 96.5599H180.882Z" fill="white"/>
<path d="M173.498 86.2241C172.447 86.5195 176.357 92.1311 178.531 93.5015C179.169 93.8913 179.453 93.7732 179.323 93.1825C178.933 92.0735 178.358 91.0388 177.621 90.1227C175.495 87.2401 173.935 86.106 173.498 86.2241Z" fill="white"/>
<path d="M165.513 76.3134C164.331 76.7387 169.376 83.0119 171.679 84.0397C172.282 84.2996 172.459 84.0397 172.164 83.3191C171.62 82.2357 170.95 81.2205 170.167 80.2947C167.663 77.294 165.938 76.1598 165.513 76.3134Z" fill="white"/>
<path d="M156.959 66.9202C155.849 67.4401 161.602 73.8432 164.047 74.7883C164.449 74.9419 164.863 74.9773 164.555 74.2212C163.905 73.0023 163.081 71.8841 162.11 70.9015C159.239 67.8299 157.384 66.7194 156.959 66.9202Z" fill="white"/>
<path d="M148.005 58.212C146.977 58.8145 153.77 65.4067 155.825 65.7965C156.333 65.891 156.322 65.4775 155.766 64.6151C155.056 63.6415 154.266 62.7286 153.404 61.8861C150.332 58.9563 148.43 57.9403 148.052 58.1647L148.005 58.212Z" fill="white"/>
<path d="M138.919 50.2493C138.069 50.8636 144.826 56.6997 146.681 56.9478C147.154 57.0186 147.095 56.6288 146.516 55.8963C145.765 55.0195 144.947 54.2019 144.07 53.4508C141.034 50.8754 139.227 50.0248 138.919 50.2493Z" fill="white"/>
<path d="M129.351 42.8087C128.665 43.423 135.257 48.4439 136.888 48.5857C137.148 48.5857 137.337 48.4912 136.793 47.8178C136.008 46.9538 135.146 46.163 134.218 45.455C131.264 43.2222 129.599 42.537 129.351 42.7496V42.8087Z" fill="white"/>
<path d="M119.332 35.886C118.789 36.4885 125.062 40.7297 126.539 40.7769C126.763 40.7769 126.917 40.6588 126.361 40.0799C125.584 39.3529 124.746 38.6929 123.857 38.107C121.045 36.2286 119.509 35.6851 119.332 35.886Z" fill="white"/>
<path d="M108.853 29.5035C108.463 30.0706 114.902 33.8392 115.74 33.5439C116.048 33.4258 115.327 32.6697 113 31.2756C110.365 29.728 108.983 29.3145 108.853 29.5035Z" fill="white"/>
<path d="M97.9487 23.6924C97.6888 24.2122 103.631 27.2366 104.316 26.9294C104.564 26.8231 103.844 26.1852 101.706 25.051C99.26 23.8696 98.0432 23.5152 97.9487 23.6924Z" fill="white"/>
<path d="M86.5725 18.4358C86.4189 18.932 91.8533 21.3066 92.3968 20.9876C92.5858 20.8695 91.9006 20.3497 89.9277 19.4636C87.7067 18.4949 86.6316 18.2822 86.5725 18.4358Z" fill="white"/>
<path d="M74.8408 13.8637C74.959 14.3835 79.779 16.1201 80.0507 15.7421C80.0507 15.5412 79.1529 15.1159 77.7588 14.5607C76.1403 13.97 74.9471 13.6746 74.8408 13.8519V13.8637Z" fill="white"/>
<path d="M62.708 9.82244C62.708 10.1532 66.902 11.4173 67.1619 11.1692C66.5653 10.7532 65.8898 10.4637 65.1771 10.3186C63.5823 9.84607 62.708 9.72793 62.708 9.85788V9.82244Z" fill="white"/>
<path d="M50.2085 6.50249C51.3631 7.03478 52.6121 7.33196 53.8826 7.37671C53.9417 7.29402 53.4455 7.06955 52.1933 6.75058C50.941 6.4316 50.1849 6.38435 50.2085 6.50249Z" fill="white"/>
<path d="M37.627 3.91732C38.5035 4.26002 39.4385 4.42855 40.3796 4.4135C40.3796 4.33081 39.8952 4.17723 39.08 4.02365C38.6058 3.9023 38.1145 3.86236 37.627 3.90551V3.91732Z" fill="white"/>
<path d="M25.0332 2.0502C25.6381 2.24949 26.2775 2.32188 26.9116 2.26285C26.6265 2.13096 26.3161 2.06244 26.0019 2.06202C25.682 2.00016 25.3532 2.00016 25.0332 2.06202V2.0502Z" fill="white"/>
<path d="M12.4639 0.961758C12.7994 1.02738 13.1444 1.02738 13.4799 0.961758C13.3216 0.901538 13.1529 0.873426 12.9837 0.879061C12.8121 0.845001 12.6355 0.845001 12.4639 0.879061V0.961758Z" fill="white"/>
<path d="M211.457 201.702C211.292 201.702 211.256 202.21 211.457 202.494C211.658 202.777 211.634 202.635 211.681 202.494C211.694 202.419 211.694 202.344 211.681 202.269C211.681 201.915 211.54 201.749 211.469 201.726L211.457 201.702Z" fill="white"/>
<path d="M210.617 189.11C210.322 189.051 210.334 190.055 210.617 190.551C210.783 190.811 210.96 190.787 211.007 190.492C211.03 190.351 211.03 190.208 211.007 190.067C210.936 189.417 210.7 189.134 210.57 189.11H210.617Z" fill="white"/>
<path d="M208.905 176.625C208.421 176.566 208.586 178.231 209.141 178.928C209.39 179.247 209.626 179.165 209.673 178.727C209.704 178.508 209.704 178.285 209.673 178.066C209.508 177.121 209.141 176.66 208.929 176.625H208.905Z" fill="white"/>
<path d="M206.495 164.372C205.857 164.313 206.224 166.534 206.98 167.373C207.334 167.775 207.606 167.645 207.653 167.078C207.661 166.792 207.634 166.506 207.57 166.227C207.275 164.987 206.755 164.396 206.495 164.372Z" fill="white"/>
<path d="M203.317 152.286C202.537 152.286 203.151 155.003 204.167 156.043C204.64 156.527 204.959 156.35 204.959 155.618C204.943 155.254 204.883 154.893 204.782 154.543C204.321 153.007 203.6 152.298 203.317 152.286Z" fill="white"/>
<path d="M199.442 140.509C198.533 140.509 199.442 143.722 200.718 144.892C201.25 145.388 201.604 145.234 201.604 144.502C201.565 144.014 201.462 143.533 201.297 143.073C200.647 141.289 199.82 140.497 199.442 140.509Z" fill="white"/>
<path d="M194.858 128.978C193.842 129.06 195.154 132.711 196.642 133.987C197.28 134.53 197.67 134.329 197.599 133.479C197.526 132.912 197.371 132.359 197.138 131.837C196.264 129.805 195.272 128.942 194.858 128.978Z" fill="white"/>
<path d="M189.565 117.731C188.466 117.885 190.215 121.984 191.928 123.343C192.684 123.934 193.109 123.686 192.944 122.717C192.816 122.072 192.602 121.449 192.306 120.862C191.125 118.582 189.943 117.66 189.53 117.731H189.565Z" fill="white"/>
<path d="M183.623 106.838C182.442 107.098 184.958 111.953 186.884 113.099C187.628 113.548 187.959 113.194 187.734 112.213C187.536 111.499 187.251 110.813 186.884 110.169C185.442 107.7 184.119 106.732 183.623 106.838Z" fill="white"/>
<path d="M177.019 96.2886C175.767 96.6548 178.909 101.912 181.071 103.07C181.91 103.507 182.253 103.07 181.91 102.03C181.637 101.25 181.272 100.504 180.823 99.8091C179.051 97.1392 177.527 96.135 177.019 96.265V96.2886Z" fill="white"/>
<path d="M169.812 86.1757C168.525 86.6482 172.305 92.2008 174.691 93.3349C175.601 93.772 175.873 93.3349 175.471 92.1535C175.112 91.318 174.66 90.5254 174.124 89.7907C172.022 86.979 170.332 85.9867 169.812 86.1757Z" fill="white"/>
<path d="M161.98 76.4753C160.634 77.0896 165.064 82.843 167.769 83.9653C168.679 84.3552 168.951 83.9653 168.596 82.9139C168.135 81.9182 167.543 80.9885 166.836 80.1494C164.367 77.2078 162.512 76.2272 161.98 76.4753Z" fill="white"/>
<path d="M153.593 67.2516C152.198 68.0431 157.857 74.3399 160.551 75.0369C161.508 75.2732 161.567 74.5644 160.716 73.1704C160.197 72.3719 159.608 71.6207 158.956 70.9257C156.121 67.9014 154.112 66.9563 153.593 67.2516Z" fill="white"/>
<path d="M144.874 58.7557C143.609 59.63 149.705 65.6787 152.352 66.2103C153.214 66.3757 153.285 65.7732 152.553 64.6272C151.925 63.7338 151.213 62.903 150.426 62.1463C147.378 59.2637 145.346 58.4368 144.874 58.7557Z" fill="white"/>
<path d="M135.942 50.9474C134.867 51.8216 140.927 57.1851 143.396 57.5395C144.176 57.6458 144.188 57.0788 143.396 56.051C142.745 55.2466 142.021 54.5032 141.235 53.83C138.222 51.29 136.308 50.6166 135.918 50.9474H135.942Z" fill="white"/>
<path d="M126.597 43.682C125.711 44.5681 132.114 49.4827 133.969 49.3291C134.761 49.27 134.04 48.1477 132.292 46.6473L131.571 46.0566C128.677 43.8947 126.916 43.3631 126.597 43.6939V43.682Z" fill="white"/>
<path d="M116.792 36.9135C116.071 37.7759 122.203 41.9226 123.88 41.6391C124.577 41.5446 123.821 40.5286 122.144 39.2763C121.931 39.1109 121.648 38.9219 121.435 38.7683C118.682 36.949 117.087 36.5591 116.839 36.8663L116.792 36.9135Z" fill="white"/>
<path d="M106.526 30.651C105.994 31.4662 111.783 34.9158 113.189 34.6205C113.779 34.4905 113.023 33.6045 111.417 32.5649L110.743 32.1514C108.144 30.6392 106.715 30.3675 106.526 30.651Z" fill="white"/>
<path d="M95.8579 24.9559C95.4799 25.712 100.843 28.5001 102.025 28.1456C102.521 28.0039 101.753 27.2596 100.264 26.409L99.6502 26.0782C97.2874 24.8968 95.9997 24.696 95.8579 24.9559Z" fill="white"/>
<path d="M84.7408 19.7725C84.5163 20.4223 89.4663 22.6197 90.3878 22.2771C90.8249 22.1235 89.9625 21.4265 88.4149 20.7058L88.1196 20.5759C85.934 19.6307 84.8235 19.5362 84.7408 19.7725Z" fill="white"/>
<path d="M73.246 15.2917C73.116 15.8588 77.5462 17.5127 78.2787 17.1819C78.5977 17.0284 77.9715 16.4967 76.1758 15.8115C74.3801 15.1263 73.2932 15.0791 73.246 15.2917Z" fill="white"/>
<path d="M61.373 11.384C61.373 11.892 65.4015 13.1089 65.7323 12.6836C65.8387 12.5536 65.4134 12.1874 63.8303 11.6912C62.2473 11.195 61.3849 11.2068 61.373 11.384Z" fill="white"/>
<path d="M49.1338 8.12111C49.1338 8.54641 52.5244 9.30249 52.7488 8.97171C52.7488 8.87719 52.5244 8.60547 51.1067 8.25106C49.6891 7.89664 49.1338 7.95571 49.1338 8.12111Z" fill="white"/>
<path d="M36.8241 5.59429C37.648 6.03666 38.5936 6.19841 39.5177 6.05503C39.5177 5.97234 39.2459 5.78331 38.2536 5.59429C37.2612 5.40527 36.8005 5.48797 36.8241 5.59429Z" fill="white"/>
<path d="M24.5022 3.78569C24.5613 3.99834 26.2743 4.18736 26.3334 3.98652C26.3925 3.78569 26.1326 3.82113 25.4592 3.72662C24.7858 3.63211 24.4786 3.72662 24.5022 3.78569Z" fill="white"/>
<path d="M12.1452 2.69983C12.1452 2.80616 13.1139 2.85341 13.1375 2.69983C13.1612 2.54625 13.0194 2.61714 12.6532 2.59351C12.2869 2.56988 12.1333 2.59351 12.1452 2.59351V2.69983Z" fill="white"/>
<path d="M0.0349524 2.31044H0.0581505L0.0349524 2.29883L0.0117188 2.31044H0.0349524Z" fill="white"/>
<path d="M206.188 199.271C206.022 199.271 205.999 199.697 206.188 199.933C206.377 200.169 206.389 200.051 206.424 199.862C206.43 199.815 206.43 199.767 206.424 199.72C206.424 199.437 206.282 199.283 206.211 199.271H206.188Z" fill="white"/>
<path d="M205.314 186.961C204.971 186.961 204.971 187.906 205.314 188.379C205.514 188.65 205.727 188.603 205.798 188.26C205.81 188.139 205.81 188.016 205.798 187.894C205.727 187.292 205.467 186.996 205.302 186.961H205.314Z" fill="white"/>
<path d="M203.695 174.839C203.175 174.839 203.282 176.245 203.837 176.942C204.156 177.343 204.463 177.237 204.522 176.717C204.542 176.537 204.542 176.354 204.522 176.174C204.357 175.288 203.955 174.862 203.719 174.839H203.695Z" fill="white"/>
<path d="M201.344 162.884C200.67 162.884 200.919 164.809 201.698 165.672C202.135 166.156 202.525 166.014 202.561 165.329C202.557 165.091 202.529 164.853 202.478 164.62C202.194 163.439 201.639 162.896 201.297 162.884H201.344Z" fill="white"/>
<path d="M198.249 151.104C197.41 151.104 197.883 153.549 198.923 154.648C199.466 155.215 199.915 155.061 199.939 154.293C199.943 153.942 199.895 153.591 199.797 153.254C199.348 151.789 198.615 151.127 198.249 151.139V151.104Z" fill="white"/>
<path d="M194.468 139.634C193.464 139.705 194.315 142.764 195.65 143.828C196.323 144.348 196.749 144.029 196.666 143.06C196.618 142.706 196.535 142.358 196.418 142.02C195.792 140.319 194.906 139.657 194.48 139.657L194.468 139.634Z" fill="white"/>
<path d="M189.991 128.374C188.81 128.528 190.062 132.06 191.669 133.206C192.46 133.785 192.933 133.371 192.756 132.261C192.685 131.854 192.566 131.458 192.401 131.079C191.539 129.118 190.475 128.339 190.038 128.398L189.991 128.374Z" fill="white"/>
<path d="M184.852 117.437C183.599 117.685 185.23 121.607 187.084 122.824C188.018 123.427 188.502 122.93 188.266 121.643C188.145 121.179 187.979 120.727 187.77 120.296C186.659 118.134 185.407 117.307 184.899 117.413L184.852 117.437Z" fill="white"/>
<path d="M179.063 106.816C177.728 107.182 179.831 111.542 181.946 112.723C182.926 113.302 183.434 112.841 183.127 111.624C182.962 111.011 182.716 110.423 182.394 109.876C181.012 107.513 179.595 106.663 179.039 106.816H179.063Z" fill="white"/>
<path d="M172.636 96.5603C171.242 97.0447 173.817 101.676 176.18 102.916C177.302 103.507 177.799 102.975 177.361 101.628C177.131 100.967 176.822 100.337 176.44 99.75C174.751 97.21 173.156 96.3476 172.565 96.5603H172.636Z" fill="white"/>
<path d="M165.63 86.7075C164.094 87.3691 167.615 92.6145 170.202 93.5241C171.384 93.9376 171.667 93.1697 170.994 91.6457C170.707 91.0489 170.367 90.4795 169.978 89.9445C167.981 87.2864 166.233 86.4004 165.63 86.7075Z" fill="white"/>
<path d="M158.046 77.3061C156.522 78.0976 160.633 83.5084 163.409 84.3944C164.591 84.7725 164.91 83.9219 164.059 82.3152C163.716 81.6956 163.321 81.1067 162.878 80.5549C160.515 77.8141 158.66 77.0107 158.058 77.3415L158.046 77.3061Z" fill="white"/>
<path d="M149.966 68.3978C148.489 69.3311 153.155 74.7537 156.038 75.4861C157.326 75.8051 157.526 74.9073 156.534 73.2888C156.13 72.6524 155.667 72.0552 155.152 71.5049C152.541 68.7404 150.544 68.0316 149.966 68.3978Z" fill="white"/>
<path d="M141.495 60.0919C140.065 61.1552 145.594 66.6959 148.288 66.9085C149.469 67.003 149.304 65.7271 147.815 63.9669C147.461 63.5534 147.107 63.199 146.823 62.9154C144.047 60.2928 142.027 59.6902 141.495 60.0919Z" fill="white"/>
<path d="M132.705 52.4115C131.524 53.4983 137.088 58.4956 139.617 58.5665C140.798 58.5665 140.432 57.3851 138.896 55.7784C138.577 55.4429 138.242 55.1235 137.892 54.8215C135.092 52.4587 133.166 51.998 132.705 52.4587V52.4115Z" fill="white"/>
<path d="M123.537 45.2657C122.521 46.3407 128.05 50.7119 130.33 50.6292C131.346 50.6292 130.968 49.5068 129.432 48.0892C129.078 47.7466 128.735 47.4867 128.44 47.2504C125.699 45.2066 123.927 44.8876 123.537 45.2657Z" fill="white"/>
<path d="M113.934 38.6726C113.118 39.724 118.458 43.3981 120.502 43.2564C121.412 43.1737 120.963 42.1813 119.462 40.9645C119.156 40.7034 118.832 40.4626 118.494 40.2438C115.859 38.5072 114.241 38.2827 113.934 38.6726Z" fill="white"/>
<path d="M103.939 32.5284C103.336 33.4617 108.44 36.5924 110.141 36.3325C110.933 36.2025 110.448 35.3401 109.019 34.3005C108.676 34.0642 108.369 33.8752 108.085 33.7098C105.616 32.2803 104.175 32.1503 103.939 32.5284Z" fill="white"/>
<path d="M93.5191 26.952C93.0465 27.9089 98.1501 30.4962 99.426 30C99.9458 29.7637 99.3669 28.9249 97.2877 27.8026C94.9958 26.6212 93.7435 26.6212 93.5427 26.952H93.5191Z" fill="white"/>
<path d="M82.6857 21.944C82.3549 22.7946 87.0214 24.8738 88.0492 24.3068C88.4745 24.0823 87.8956 23.3735 85.9818 22.4992C84.0679 21.625 82.8038 21.625 82.6857 21.9322V21.944Z" fill="white"/>
<path d="M71.474 17.5112C71.2968 18.22 75.4907 19.7912 76.1996 19.2951C76.5422 19.0824 75.9751 18.5035 74.2739 17.8301C72.5727 17.1567 71.4976 17.2394 71.4268 17.5112H71.474Z" fill="white"/>
<path d="M59.8725 13.6881C59.7898 14.3024 63.4167 15.4247 64.0192 14.964C64.2673 14.775 63.7474 14.3024 62.2707 13.7826C60.794 13.2628 59.9079 13.4164 59.9079 13.6409L59.8725 13.6881Z" fill="white"/>
<path d="M47.9521 10.5081C47.9521 10.9925 50.9175 11.6895 51.3309 11.3351C51.4963 11.1934 51.1301 10.8389 49.8542 10.5081C48.5783 10.1774 47.964 10.3309 47.9521 10.5081Z" fill="white"/>
<path d="M35.8906 8.0273C35.8906 8.39353 38.2534 8.81883 38.5133 8.49986C38.6196 8.38172 38.3125 8.13363 37.3319 7.93279C36.3514 7.73195 35.9024 7.93279 35.9142 8.0273H35.8906Z" fill="white"/>
<path d="M23.9583 6.26849C23.9583 6.51658 25.5059 6.69379 25.6713 6.46933C25.8367 6.24486 25.4468 6.22123 24.868 6.15035C24.2891 6.07947 23.9465 6.15035 23.9583 6.26849Z" fill="white"/>
<path d="M11.9199 5.20302C11.9199 5.32116 12.7351 5.36842 12.8059 5.20302C12.8768 5.03763 12.7351 5.08488 12.3688 5.06126C12.0026 5.03763 11.9081 5.06126 11.9199 5.15577V5.20302Z" fill="white"/>
<path d="M200.115 197.227L200.281 197.569L200.422 197.345L200.257 196.99L200.115 197.227Z" fill="white"/>
<path d="M199.395 185.024C199.029 185.024 199.029 185.887 199.395 186.312C199.761 186.737 199.867 186.466 199.903 186.064C199.908 185.997 199.908 185.93 199.903 185.863C199.844 185.32 199.584 185.048 199.418 185.024H199.395Z" fill="white"/>
<path d="M197.824 173.268C197.268 173.268 197.339 174.567 197.918 175.193C198.308 175.607 198.662 175.406 198.662 174.792C198.68 174.686 198.68 174.578 198.662 174.473C198.521 173.669 198.107 173.291 197.847 173.291L197.824 173.268Z" fill="white"/>
<path d="M195.544 161.69C194.823 161.69 195.024 163.439 195.839 164.23C196.312 164.703 196.749 164.49 196.761 163.77C196.763 163.59 196.739 163.411 196.69 163.238C196.43 162.175 195.863 161.69 195.508 161.69H195.544Z" fill="white"/>
<path d="M192.543 150.253C191.645 150.253 192.035 152.533 193.11 153.49C193.771 154.069 194.291 153.761 194.232 152.828C194.221 152.6 194.181 152.373 194.114 152.155C193.701 150.808 192.933 150.229 192.543 150.253Z" fill="white"/>
<path d="M188.868 139.091C187.805 139.209 188.443 141.879 189.802 142.954C190.605 143.603 191.184 143.202 191.054 142.079C191.021 141.805 190.958 141.536 190.865 141.276C190.262 139.681 189.341 139.032 188.868 139.091Z" fill="white"/>
<path d="M184.545 128.186C183.363 128.398 184.285 131.423 185.88 132.569C186.849 133.266 187.463 132.781 187.238 131.505C187.174 131.194 187.079 130.889 186.955 130.596C186.152 128.788 185.065 128.103 184.592 128.233L184.545 128.186Z" fill="white"/>
<path d="M179.56 117.566C178.26 117.873 179.56 121.288 181.403 122.504C182.454 123.19 183.116 122.705 182.879 121.418C182.787 120.98 182.64 120.555 182.442 120.154C181.414 118.133 180.079 117.425 179.56 117.566Z" fill="white"/>
<path d="M173.995 107.276C172.542 107.736 174.444 111.753 176.606 112.793C177.787 113.36 178.319 112.627 177.846 111.127C177.708 110.72 177.538 110.325 177.338 109.946C176.05 107.76 174.609 107.051 173.995 107.24V107.276Z" fill="white"/>
<path d="M167.745 97.341C166.221 97.9317 168.584 102.244 170.994 103.248C172.293 103.803 172.825 102.964 172.175 101.346C171.995 100.936 171.782 100.54 171.537 100.165C169.978 97.8018 168.371 97.1284 167.721 97.3765L167.745 97.341Z" fill="white"/>
<path d="M160.999 87.8293C159.452 88.55 162.287 93.051 164.886 93.9962C166.304 94.516 166.788 93.5827 165.997 91.8697C165.774 91.425 165.517 90.9985 165.229 90.5937C163.397 88.231 161.684 87.5221 160.999 87.8293Z" fill="white"/>
<path d="M153.675 78.7228C152.151 79.597 155.459 84.2044 158.212 85.055C159.736 85.5276 160.161 84.4997 159.18 82.6922C158.92 82.2295 158.62 81.7906 158.283 81.3809C156.18 78.9118 154.325 78.3211 153.675 78.6873V78.7228Z" fill="white"/>
<path d="M145.878 70.1115C144.307 71.1748 148.441 76.0184 151.265 76.4792C152.73 76.7036 152.86 75.4514 151.584 73.6439C151.335 73.2985 151.066 72.9672 150.781 72.6515C148.418 70.206 146.504 69.6862 145.878 70.1115Z" fill="white"/>
<path d="M137.702 62.0513C136.249 63.2327 140.679 67.8401 143.468 68.1118C144.909 68.2536 144.932 67.0013 143.538 65.2647C143.231 64.8866 142.912 64.5558 142.676 64.3078C140.195 61.945 138.269 61.6024 137.702 62.0513Z" fill="white"/>
<path d="M129.102 54.5263C127.838 55.7077 132.41 59.9725 135.08 60.0907C136.45 60.0907 136.38 58.9093 134.903 57.3144C134.619 57.0074 134.319 56.7156 134.005 56.4402C131.465 54.3373 129.61 54.0774 129.102 54.5263Z" fill="white"/>
<path d="M120.17 47.5337C119.095 48.7151 123.715 52.4955 126.136 52.4601C127.4 52.4601 127.223 51.2787 125.735 49.861C125.449 49.5891 125.15 49.3327 124.837 49.0931C122.332 47.2384 120.596 47.0612 120.17 47.5337Z" fill="white"/>
<path d="M110.803 41.0347C109.881 42.2161 114.784 45.7602 116.839 45.2877C117.832 45.0868 117.477 43.87 115.174 42.2397C112.87 40.6094 111.157 40.5858 110.803 41.0583V41.0347Z" fill="white"/>
<path d="M101.068 35.129C100.335 36.3104 105.002 39.1575 106.809 38.6732C107.672 38.4369 107.246 37.35 105.049 36.0032C102.851 34.6564 101.339 34.6919 101.068 35.129Z" fill="white"/>
<path d="M90.9193 29.6477C90.3995 30.6755 94.8061 33.0383 96.2828 32.5303C97.0035 32.2822 96.5428 31.3489 94.5226 30.2266C92.5024 29.1043 91.1202 29.2461 90.9193 29.6477Z" fill="white"/>
<path d="M80.4053 24.7678C80.0391 25.6893 84.0558 27.5559 85.2963 27.036C85.8988 26.7761 85.4026 25.961 83.5478 25.1104C81.6931 24.2598 80.5471 24.4134 80.4053 24.7678Z" fill="white"/>
<path d="M69.4896 20.4442C69.2533 21.2712 72.8683 22.6889 73.8725 22.1691C74.3687 21.921 73.8725 21.2476 72.2068 20.586C70.541 19.9244 69.5723 20.1371 69.4896 20.4442Z" fill="white"/>
<path d="M58.2191 16.7343C58.101 17.4195 61.1962 18.4237 61.9877 17.9157C62.3776 17.6912 61.8578 17.1359 60.4756 16.7343C59.0933 16.3326 58.2664 16.4744 58.2191 16.7343Z" fill="white"/>
<path d="M46.6299 13.6288C46.6299 14.1959 49.3471 14.8102 49.7724 14.3967C49.926 14.2077 49.6188 13.8296 48.4256 13.5107C47.2324 13.1917 46.6535 13.4162 46.6299 13.6288Z" fill="white"/>
<path d="M34.957 11.2058C34.957 11.6311 36.8473 12.0091 37.2489 11.6665C37.4498 11.5011 37.1072 11.2176 36.233 11.0522C35.3587 10.8868 34.957 11.0522 34.957 11.2058Z" fill="white"/>
<path d="M23.2738 9.49178C23.2738 9.75169 24.5615 9.9289 24.786 9.69262C25.0104 9.45634 24.6442 9.40908 24.1007 9.32639C23.5573 9.24369 23.262 9.32639 23.2738 9.49178Z" fill="white"/>
<path d="M11.6365 8.45199C11.6365 8.58194 12.2509 8.61739 12.3454 8.45199C12.4399 8.2866 12.2627 8.32204 12.0028 8.29841C11.7429 8.27478 11.6247 8.29841 11.6365 8.40474V8.45199Z" fill="white"/>
<path d="M193.512 194.992L193.665 195.252L193.795 195.074L193.653 194.814L193.512 194.992Z" fill="white"/>
<path d="M192.827 183.321C192.519 183.321 192.472 183.924 192.767 184.278C193.063 184.633 193.228 184.455 193.264 184.125V183.983C193.205 183.569 192.98 183.357 192.827 183.345V183.321Z" fill="white"/>
<path d="M191.314 171.923C190.806 171.923 190.818 172.974 191.314 173.53C191.81 174.085 192.094 173.789 192.106 173.222C192.111 173.132 192.111 173.041 192.106 172.951C191.976 172.265 191.574 171.935 191.326 171.923H191.314Z" fill="white"/>
<path d="M189.105 160.698C188.396 160.698 188.491 162.198 189.247 162.93C189.778 163.462 190.322 163.214 190.298 162.458C190.31 162.332 190.31 162.205 190.298 162.08C190.062 161.111 189.483 160.686 189.117 160.698H189.105Z" fill="white"/>
<path d="M186.21 149.726C185.312 149.809 185.56 151.664 186.576 152.585C187.309 153.235 187.947 152.892 187.852 151.888C187.835 151.729 187.808 151.571 187.77 151.416C187.38 150.234 186.588 149.691 186.21 149.726Z" fill="white"/>
<path d="M182.678 138.888C181.591 139.041 182.134 141.463 183.457 142.432C184.32 143.034 184.946 142.538 184.769 141.404C184.734 141.216 184.687 141.03 184.627 140.849C184.083 139.408 183.15 138.864 182.678 138.935V138.888Z" fill="white"/>
<path d="M178.496 128.362C177.314 128.611 178.07 131.387 179.677 132.367C180.705 133.017 181.39 132.367 181.107 131.103C181.061 130.885 180.994 130.671 180.906 130.465C180.173 128.823 179.063 128.244 178.543 128.362H178.496Z" fill="white"/>
<path d="M173.699 118.108C172.341 118.486 173.451 121.652 175.294 122.621C176.475 123.283 177.22 122.55 176.794 121.085C176.719 120.834 176.624 120.589 176.511 120.353C175.566 118.533 174.29 117.99 173.699 118.108Z" fill="white"/>
<path d="M168.288 108.163C166.847 108.659 168.288 112.097 170.403 113.124C171.773 113.81 172.506 112.935 171.927 111.305C171.82 111.034 171.698 110.77 171.561 110.514C170.379 108.517 168.938 107.938 168.288 108.151V108.163Z" fill="white"/>
<path d="M162.322 98.6047C160.834 99.2427 162.653 102.881 164.969 103.886C166.481 104.535 167.19 103.543 166.457 101.806C166.325 101.518 166.175 101.237 166.008 100.968C164.591 98.8646 162.996 98.3212 162.322 98.6047Z" fill="white"/>
<path d="M155.825 89.4735C154.242 90.2768 156.723 94.3408 159.239 95.0496C160.834 95.4867 161.306 94.2108 160.243 92.3679C160.137 92.1788 159.983 91.9544 159.865 91.7772C158.211 89.6152 156.51 89.1309 155.825 89.4144V89.4735Z" fill="white"/>
<path d="M148.807 80.6591C147.236 81.6043 150.119 85.7273 152.765 86.318C154.431 86.6842 154.821 85.3256 153.58 83.4472C153.462 83.2582 153.273 83.0219 153.143 82.8447C151.276 80.671 149.481 80.2575 148.807 80.6591Z" fill="white"/>
<path d="M141.317 72.3422C139.805 73.4055 143.042 77.5049 145.759 77.9656C147.473 78.2492 147.768 76.7842 146.362 74.9531C146.22 74.7641 146.019 74.5396 145.866 74.3624C143.81 72.2123 141.967 71.8815 141.317 72.3422Z" fill="white"/>
<path d="M133.402 64.5361C132.008 65.7175 135.505 69.6042 138.21 69.8996C139.805 70.0768 140.065 68.8127 138.789 67.147C138.553 66.846 138.296 66.5618 138.021 66.2964C135.965 64.3825 134.099 63.9336 133.402 64.5361Z" fill="white"/>
<path d="M125.097 57.2073C123.857 58.3887 127.531 62.0392 130.13 62.1928C131.666 62.2873 131.819 61.0114 130.449 59.4638C130.206 59.183 129.942 58.9223 129.657 58.6841C127.401 56.8056 125.629 56.6993 125.097 57.2073Z" fill="white"/>
<path d="M116.403 50.3928C115.221 51.6805 119.344 55.1184 121.731 54.8585C123.137 54.7167 122.829 53.2518 121.081 51.7987L120.797 51.5624C118.529 49.9084 116.863 49.8848 116.403 50.381V50.3928Z" fill="white"/>
<path d="M107.364 44.1086C106.419 45.2899 110.4 48.3025 112.551 47.9599C113.815 47.7591 113.413 46.4241 111.712 45.16L111.428 44.9592C109.243 43.5415 107.742 43.6124 107.364 44.1086Z" fill="white"/>
<path d="M97.9011 38.3062C97.1568 39.4876 100.996 41.9921 102.91 41.5668C104.032 41.3188 103.548 40.1137 101.906 39.0387L101.634 38.8733C99.555 37.6919 98.1964 37.8337 97.9011 38.3062Z" fill="white"/>
<path d="M88.0725 33.0265C87.5173 34.1015 91.1678 36.1808 92.7981 35.7082C93.7196 35.4365 93.3888 34.3969 91.4632 33.3454C89.5375 32.294 88.3207 32.5657 88.0962 33.0146L88.0725 33.0265Z" fill="white"/>
<path d="M77.865 28.2767C77.4633 29.2572 80.8421 30.923 82.2125 30.415C82.9922 30.1314 82.6142 29.2336 80.8303 28.3948C79.0464 27.556 78.054 27.8041 77.865 28.2767Z" fill="white"/>
<path d="M67.3151 24.0814C67.0316 24.9911 70.3159 26.2906 71.2964 25.6645C71.7808 25.3573 71.3673 24.6485 69.8433 24.046C68.3193 23.4435 67.4805 23.7388 67.3151 24.046V24.0814Z" fill="white"/>
<path d="M56.4231 20.4795C56.2695 21.2356 59.0576 22.1571 59.8137 21.5901C60.1799 21.3183 59.8137 20.7513 58.5141 20.3378C57.2146 19.9243 56.4822 20.1842 56.4231 20.4795Z" fill="white"/>
<path d="M45.223 17.4644C45.164 18.0669 47.3968 18.6458 47.952 18.1851C48.2238 17.9488 47.8339 17.5235 46.7707 17.2518C45.7074 16.9801 45.1994 17.2518 45.1758 17.4644H45.223Z" fill="white"/>
<path d="M33.8703 15.1165C33.8703 15.5654 35.5597 15.908 35.9259 15.53C36.1031 15.341 35.8196 15.0456 35.0281 14.892C34.2365 14.7384 33.8467 14.892 33.8467 15.1165H33.8703Z" fill="white"/>
<path d="M22.6001 13.4381C22.6001 13.7216 23.6633 13.8752 23.8641 13.6153C24.065 13.3554 23.7578 13.3199 23.2852 13.2609C22.8127 13.2018 22.5882 13.3318 22.6001 13.4381Z" fill="white"/>
<path d="M11.5772 12.5299L11.8489 12.4472L11.6008 12.3291L11.3291 12.4118L11.5772 12.5299Z" fill="white"/>
<path d="M186.353 192.89L186.412 192.985L186.471 192.926L186.4 192.808L186.353 192.89Z" fill="white"/>
<path d="M185.631 181.737C185.371 181.737 185.336 182.198 185.572 182.47C185.809 182.741 185.974 182.588 185.998 182.304V182.222C185.998 181.903 185.761 181.737 185.631 181.737Z" fill="white"/>
<path d="M184.167 170.764C183.682 170.764 183.67 171.65 184.167 172.11C184.663 172.571 184.934 172.288 184.923 171.768C184.923 171.768 184.923 171.662 184.923 171.614C184.805 171.035 184.438 170.764 184.202 170.764H184.167Z" fill="white"/>
<path d="M182.051 159.979C181.354 159.979 181.402 161.278 182.134 161.928C182.867 162.578 183.245 162.117 183.186 161.373C183.191 161.298 183.191 161.223 183.186 161.148C182.973 160.321 182.418 159.967 182.087 159.967L182.051 159.979Z" fill="white"/>
<path d="M179.275 149.368C178.401 149.462 178.567 151.104 179.547 151.884C180.291 152.475 180.965 152.061 180.823 151.093C180.83 150.998 180.83 150.903 180.823 150.809C180.48 149.746 179.748 149.321 179.334 149.368H179.275Z" fill="white"/>
<path d="M175.885 139.018C174.869 139.196 175.2 141.168 176.393 142.007C177.315 142.645 178.071 142.114 177.846 140.979C177.846 140.873 177.775 140.743 177.74 140.637C177.267 139.385 176.37 138.936 175.885 139.018Z" fill="white"/>
<path d="M171.88 128.884C170.699 129.156 171.219 131.447 172.695 132.428C173.747 133.09 174.574 132.522 174.337 131.306C174.303 131.111 174.248 130.921 174.172 130.739C173.51 129.274 172.435 128.801 171.88 128.931V128.884Z" fill="white"/>
<path d="M167.272 119.008C165.973 119.398 166.752 121.962 168.454 122.93C169.635 123.628 170.568 122.93 170.202 121.548C170.145 121.328 170.066 121.114 169.966 120.91C169.127 119.292 167.887 118.831 167.272 119.008Z" fill="white"/>
<path d="M162.181 109.553C160.799 110.061 161.827 112.861 163.752 113.83C165.158 114.539 166.115 113.712 165.56 112.176C165.475 111.936 165.372 111.703 165.253 111.479C164.213 109.742 162.831 109.305 162.181 109.553Z" fill="white"/>
<path d="M156.392 100.306C154.88 100.991 156.392 104.228 158.637 105.032C160.161 105.563 160.917 104.429 160.137 102.787C160.067 102.633 159.948 102.433 159.866 102.279C158.602 100.436 157.078 100.034 156.392 100.341V100.306Z" fill="white"/>
<path d="M150.154 91.482C148.618 92.2971 150.497 95.6759 152.871 96.3611C154.513 96.8337 155.234 95.5814 154.277 93.8684C154.183 93.703 154.041 93.5022 153.946 93.3486C152.481 91.4465 150.851 91.1039 150.154 91.482Z" fill="white"/>
<path d="M143.456 83.0806C141.968 84.0139 144.13 87.4163 146.587 87.9833C148.336 88.3968 148.95 87.0737 147.828 85.3134C147.721 85.148 147.568 84.9472 147.45 84.7936C145.819 82.9034 144.13 82.6553 143.456 83.0806Z" fill="white"/>
<path d="M136.261 75.0569C134.82 76.1083 137.277 79.5107 139.805 79.9715C141.601 80.2904 142.168 78.8846 140.856 77.1361C140.738 76.9708 140.561 76.7699 140.431 76.6163C138.517 74.6434 136.887 74.608 136.237 75.0569H136.261Z" fill="white"/>
<path d="M128.665 67.521C127.259 68.7024 130.272 72.1639 132.788 72.2466C134.466 72.3175 134.643 70.7226 133.143 69.0923L132.906 68.8442C130.981 67.0721 129.268 67.0012 128.665 67.521Z" fill="white"/>
<path d="M120.679 60.4578C119.427 61.6983 122.569 64.8998 125.003 64.8526C126.633 64.8526 126.681 63.2813 125.086 61.7455L124.838 61.5211C122.865 59.9026 121.223 59.9262 120.679 60.4578Z" fill="white"/>
<path d="M112.314 53.8791C111.228 55.1314 114.429 58.014 116.697 57.8367C118.21 57.7186 118.139 56.2182 116.556 54.8715L116.307 54.6706C114.323 53.2293 112.763 53.3475 112.314 53.8791Z" fill="white"/>
<path d="M103.572 47.7689C102.65 48.9503 105.828 51.5257 107.908 51.2422C109.29 51.0532 109.089 49.6591 107.541 48.4778L107.305 48.3005C105.368 47.1192 103.95 47.2491 103.572 47.7689Z" fill="white"/>
<path d="M94.4401 42.2165C93.7077 43.3979 96.8029 45.548 98.6695 45.1818C99.9099 44.9455 99.6264 43.6696 98.1024 42.6654L97.8661 42.5118C96.0232 41.4722 94.7591 41.7203 94.4401 42.2165Z" fill="white"/>
<path d="M84.9656 37.0405C84.3631 38.2219 87.541 40.053 89.1123 39.4033C89.8684 39.1079 89.8447 38.0919 88.049 37.0995C86.2533 36.1072 85.2019 36.5325 84.9656 36.9932V37.0405Z" fill="white"/>
<path d="M75.1362 32.4598C74.7227 33.4876 77.6643 34.9643 78.9402 34.3736C79.6609 34.031 79.3892 33.1332 77.8297 32.4007C76.2703 31.6682 75.3134 32.0463 75.1362 32.4007V32.4598Z" fill="white"/>
<path d="M64.9528 28.4063C64.6692 29.316 67.3155 30.4383 68.3551 29.8712C68.8749 29.5877 68.7687 28.8316 67.2447 28.2291C65.7207 27.6266 65.0709 28.0637 64.9528 28.4063Z" fill="white"/>
<path d="M54.4854 24.9219C54.32 25.6661 56.5174 26.4577 57.3207 25.9497C57.7106 25.6898 57.5334 25.0872 56.3166 24.6738C55.0998 24.2603 54.5445 24.6738 54.4854 24.9219Z" fill="white"/>
<path d="M43.6404 22.0029C43.5577 22.5936 45.3653 23.1252 46.0032 22.6763C46.2986 22.4637 46.0977 21.9793 45.1054 21.7194C44.113 21.4595 43.6995 21.7194 43.6759 22.0029H43.6404Z" fill="white"/>
<path d="M32.748 19.7721C32.748 20.1856 34.0003 20.4692 34.3784 20.1384C34.5556 19.973 34.3784 19.654 33.705 19.5122C33.0316 19.3705 32.748 19.6067 32.748 19.7721Z" fill="white"/>
<path d="M21.8561 18.1056C21.8561 18.3419 22.6122 18.4718 22.8131 18.271C23.0139 18.0702 22.8131 17.9875 22.3996 17.9166C21.9861 17.8457 21.8443 18.0111 21.8561 18.1056Z" fill="white"/>
<path d="M11.1406 17.1719L11.2588 17.1246L11.1406 17.0537L11.0225 17.1128L11.1406 17.1719Z" fill="white"/>
<path d="M177.834 180.32C177.645 180.32 177.575 180.58 177.764 180.793C177.953 181.006 178.094 180.887 178.106 180.698C178.113 180.679 178.113 180.658 178.106 180.639C178.106 180.438 177.953 180.32 177.846 180.32H177.834Z" fill="white"/>
<path d="M176.452 169.805C176.039 169.805 175.98 170.431 176.358 170.797C176.736 171.163 177.067 170.986 177.067 170.561C177.072 170.522 177.072 170.482 177.067 170.443C177.055 170.283 176.988 170.133 176.878 170.017C176.769 169.901 176.622 169.826 176.464 169.805H176.452Z" fill="white"/>
<path d="M174.432 159.507C173.83 159.507 173.794 160.511 174.432 161.043C175.07 161.574 175.495 161.267 175.46 160.617C175.465 160.558 175.465 160.499 175.46 160.44C175.423 160.2 175.308 159.979 175.133 159.81C174.958 159.642 174.732 159.535 174.491 159.507H174.432Z" fill="white"/>
<path d="M171.786 149.378C171.006 149.473 171.065 150.737 171.869 151.387C172.672 152.036 173.263 151.611 173.156 150.76C173.162 150.682 173.162 150.603 173.156 150.524C172.849 149.603 172.176 149.343 171.821 149.343L171.786 149.378Z" fill="white"/>
<path d="M168.549 139.435C167.58 139.612 167.745 141.195 168.808 141.951C169.872 142.707 170.557 142.128 170.356 141.077C170.339 140.977 170.316 140.878 170.285 140.781C170.182 140.398 169.957 140.059 169.643 139.816C169.33 139.573 168.945 139.439 168.549 139.435Z" fill="white"/>
<path d="M164.72 129.744C163.61 130.028 163.917 131.871 165.205 132.698C166.493 133.525 167.26 132.804 166.953 131.517C166.953 131.422 166.882 131.292 166.847 131.186C166.244 129.863 165.217 129.579 164.72 129.697V129.744Z" fill="white"/>
<path d="M160.338 120.341C159.05 120.754 159.664 122.987 161.271 123.755C162.453 124.346 163.386 123.566 162.984 122.267C162.984 122.148 162.878 122.007 162.831 121.889C162.098 120.506 160.929 120.152 160.338 120.341Z" fill="white"/>
<path d="M155.412 111.234C154.053 111.766 154.88 114.211 156.687 114.956C158.058 115.534 158.991 114.613 158.448 113.195C158.448 113.077 158.318 112.912 158.259 112.794C157.349 111.305 156.05 110.986 155.412 111.234Z" fill="white"/>
<path d="M149.954 102.469C148.512 103.142 149.599 105.777 151.608 106.485C153.167 107.041 154.077 105.989 153.38 104.453L153.143 104.016C152.104 102.528 150.781 102.102 149.954 102.469Z" fill="white"/>
<path d="M144.011 93.9733C142.558 94.7766 143.893 97.5174 146.043 98.1672C147.697 98.6634 148.595 97.4702 147.756 95.8871C147.685 95.7453 147.555 95.5681 147.473 95.4382C146.209 93.8079 144.685 93.5952 144.011 93.9733Z" fill="white"/>
<path d="M137.608 85.9268C136.191 86.8365 137.762 89.6246 139.971 90.1798C141.708 90.6051 142.523 89.3056 141.542 87.6989C141.46 87.5571 141.318 87.3799 141.224 87.25C139.806 85.6197 138.235 85.5015 137.573 85.9268H137.608Z" fill="white"/>
<path d="M130.779 78.2737C129.362 79.3251 131.405 82.2549 133.721 82.503C135.446 82.6802 135.965 81.1799 134.725 79.6323C134.725 79.5614 134.595 79.4787 134.536 79.4078C133 77.8366 131.405 77.7893 130.779 78.2264V78.2737Z" fill="white"/>
<path d="M123.515 71.0305C122.203 72.2119 124.436 74.9763 126.74 75.0945C128.441 75.189 128.843 73.6532 127.508 72.1764C127.508 72.1056 127.354 72.0229 127.295 71.9638C125.665 70.4752 124.105 70.5225 123.515 71.0305Z" fill="white"/>
<path d="M115.859 64.2382C114.678 65.4196 116.981 68.0541 119.273 68.0423C120.939 68.0423 121.199 66.5301 119.793 65.136L119.58 64.947C117.891 63.5766 116.391 63.7066 115.859 64.2382Z" fill="white"/>
<path d="M107.837 57.904C106.797 59.0854 109.231 61.4482 111.381 61.3655C112.94 61.2592 113.082 59.7943 111.664 58.5538L111.452 58.3766C109.739 57.1952 108.321 57.3606 107.908 57.904H107.837Z" fill="white"/>
<path d="M99.437 52.0223C98.5628 53.2036 100.996 55.3183 102.981 55.0939C104.446 54.9167 104.47 53.5581 102.981 52.4476L102.768 52.294C101.197 51.2898 99.8741 51.4079 99.4252 52.0223H99.437Z" fill="white"/>
<path d="M90.6837 46.6221C89.9513 47.8035 92.574 49.7056 94.2988 49.2212C95.3739 48.914 95.3739 47.7208 93.7435 46.693C92.1132 45.6652 91.0027 46.1141 90.6837 46.6221Z" fill="white"/>
<path d="M81.6224 41.7088C81.0435 42.8075 83.5127 44.3552 85.0012 43.8472C85.9345 43.5282 85.84 42.4649 84.3278 41.6261C82.8156 40.7874 81.8587 41.2481 81.6224 41.7088Z" fill="white"/>
<path d="M72.1827 37.2927C71.7692 38.2851 74.0257 39.5255 75.2779 38.9939C76.0576 38.6631 75.9041 37.7416 74.5336 37.0919C73.1632 36.4421 72.3599 36.8792 72.1709 37.2927H72.1827Z" fill="white"/>
<path d="M62.4128 33.38C62.1175 34.266 64.1495 35.2111 65.1891 34.6913C65.827 34.3723 65.6262 33.5926 64.3976 33.0846C63.1689 32.5766 62.5309 33.0256 62.4128 33.38Z" fill="white"/>
<path d="M52.3121 30.0249C52.1467 30.7338 53.8361 31.4072 54.6749 30.9464C55.112 30.6865 55.0411 30.084 53.9424 29.706C52.8437 29.3279 52.4302 29.706 52.3594 30.0249H52.3121Z" fill="white"/>
<path d="M41.9626 27.2139C41.8799 27.7455 43.2385 28.1944 43.8056 27.8164C44.1482 27.5801 43.9473 27.1194 43.144 26.8949C42.3406 26.6704 41.9626 26.9894 41.9626 27.2139Z" fill="white"/>
<path d="M31.5189 25.0274C31.5189 25.3818 32.405 25.6299 32.7003 25.3463C32.9957 25.0628 32.7594 24.8856 32.216 24.7675C31.6725 24.6493 31.4835 24.8738 31.4717 25.0274H31.5189Z" fill="white"/>
<path d="M21.0645 23.4582C21.0645 23.6236 21.5134 23.7536 21.6906 23.5763C21.8678 23.3991 21.6906 23.3401 21.4307 23.3046C21.1708 23.2692 21.0645 23.3046 21.0645 23.4582Z" fill="white"/>
<path d="M169.388 179.176L169.482 179.295L169.565 179.2L169.459 179.094L169.388 179.176Z" fill="white"/>
<path d="M168.146 169.121C167.875 169.121 167.804 169.499 168.052 169.735C168.3 169.972 168.572 169.889 168.584 169.605C168.589 169.578 168.589 169.55 168.584 169.523C168.57 169.417 168.52 169.319 168.443 169.246C168.365 169.173 168.265 169.128 168.158 169.121H168.146Z" fill="white"/>
<path d="M166.233 159.291C165.725 159.291 165.689 160.035 166.174 160.472C166.658 160.91 167.107 160.602 167.036 160.083C167.036 160.083 167.036 160.083 167.036 160.012C167.003 159.825 166.906 159.655 166.761 159.532C166.617 159.41 166.434 159.341 166.244 159.338L166.233 159.291Z" fill="white"/>
<path d="M163.717 149.617C163.008 149.711 163.02 150.798 163.717 151.259C164.414 151.72 165.052 151.353 164.898 150.609C164.902 150.578 164.902 150.546 164.898 150.515C164.833 150.252 164.681 150.02 164.466 149.857C164.251 149.694 163.987 149.609 163.717 149.617Z" fill="white"/>
<path d="M160.645 140.177C159.795 140.354 159.889 141.642 160.799 142.233C161.708 142.823 162.453 142.233 162.216 141.347V141.228C162.118 140.905 161.912 140.624 161.633 140.433C161.354 140.242 161.018 140.152 160.681 140.177H160.645Z" fill="white"/>
<path d="M157.03 130.975C156.014 131.246 156.226 132.77 157.36 133.408C158.495 134.046 159.31 133.337 158.967 132.227C158.967 132.227 158.967 132.132 158.967 132.085C158.833 131.703 158.573 131.377 158.229 131.163C157.886 130.948 157.479 130.857 157.077 130.904L157.03 130.975Z" fill="white"/>
<path d="M152.872 122.008C151.691 122.386 152.08 124.135 153.427 124.808C154.774 125.482 155.577 124.69 155.235 123.52C155.206 123.414 155.166 123.311 155.117 123.213C154.93 122.792 154.607 122.447 154.2 122.232C153.792 122.018 153.325 121.947 152.872 122.032V122.008Z" fill="white"/>
<path d="M148.205 113.334C147.024 113.83 147.508 115.697 149.032 116.417C150.344 116.996 151.395 116.157 150.899 114.881C150.855 114.764 150.804 114.65 150.745 114.539C150.519 114.083 150.144 113.718 149.682 113.503C149.221 113.289 148.7 113.237 148.205 113.357V113.334Z" fill="white"/>
<path d="M143.031 104.951C141.755 105.565 142.452 107.656 144.141 108.294C145.618 108.837 146.658 107.869 146.067 106.498C146.012 106.37 145.944 106.247 145.866 106.132C145.612 105.629 145.186 105.234 144.667 105.018C144.147 104.801 143.567 104.777 143.031 104.951Z" fill="white"/>
<path d="M137.371 96.915C136.072 97.6475 136.958 99.8449 138.777 100.459C140.372 100.944 141.4 99.8449 140.679 98.4154C140.609 98.2842 140.53 98.1579 140.443 98.0373C140.133 97.532 139.658 97.149 139.099 96.9532C138.539 96.7573 137.929 96.7605 137.371 96.9623V96.915Z" fill="white"/>
<path d="M131.311 89.2359C129.953 90.122 131.205 92.4966 133.225 92.7801C134.891 93.0754 135.694 91.7287 134.702 90.311C134.702 90.2519 134.596 90.181 134.56 90.122C134.214 89.6099 133.7 89.235 133.107 89.0624C132.513 88.8897 131.878 88.9302 131.311 89.1769V89.2359Z" fill="white"/>
<path d="M124.802 81.9347C123.491 82.9271 124.932 85.278 126.999 85.4789C128.701 85.6679 129.362 84.2975 128.323 82.868L128.157 82.679C126.858 81.3676 125.416 81.4267 124.802 81.8993V81.9347Z" fill="white"/>
<path d="M117.902 75.0239C116.721 76.0871 118.28 78.3554 120.336 78.4853C122.025 78.6035 122.616 77.1386 121.435 75.8036L121.269 75.6264C119.887 74.3859 118.469 74.5277 117.902 75.0239Z" fill="white"/>
<path d="M110.614 68.5398C109.527 69.6503 111.228 71.7768 113.224 71.7886C114.855 71.7886 115.327 70.3473 114.087 69.1069L113.91 68.9415C112.492 67.7601 111.133 68.02 110.614 68.5398Z" fill="white"/>
<path d="M102.982 62.4752C102.025 63.6565 103.785 65.5349 105.664 65.4404C107.211 65.3695 107.554 63.9519 106.29 62.8414L106.124 62.6878C104.695 61.6836 103.431 61.9553 102.982 62.4752Z" fill="white"/>
<path d="M94.9597 56.8414C94.1091 58.0228 96.1411 59.8303 97.8777 59.4877C99.0001 59.275 99.5199 58.0582 97.8777 56.8768C96.3892 55.9435 95.2787 56.357 94.9243 56.8768L94.9597 56.8414Z" fill="white"/>
<path d="M86.6311 51.6686C85.9459 52.7672 87.9188 54.3267 89.4783 53.9368C90.4706 53.6887 90.8487 52.5546 89.3011 51.574C87.9661 50.8416 86.9383 51.196 86.6311 51.6804V51.6686Z" fill="white"/>
<path d="M77.9717 46.9432C77.4401 47.9474 79.283 49.2469 80.6416 48.8098C81.5985 48.5144 81.6222 47.4394 80.3226 46.7187C79.0231 45.9981 78.2079 46.4943 77.9598 46.9432H77.9717Z" fill="white"/>
<path d="M68.958 42.7358C68.58 43.6337 70.2812 44.6851 71.4271 44.2362C72.2423 43.929 72.1714 42.9839 71.0018 42.4169C69.8323 41.8498 69.1352 42.3342 68.958 42.7358Z" fill="white"/>
<path d="M59.648 39.0028C59.3881 39.7826 60.8294 40.5741 61.81 40.1842C62.4715 39.8889 62.377 39.121 61.3256 38.6839C60.2742 38.2467 59.7661 38.6839 59.648 39.0501V39.0028Z" fill="white"/>
<path d="M50.0551 35.78C49.9134 36.3825 51.1538 36.9614 51.8272 36.5834C52.2761 36.3471 52.2407 35.7328 51.3547 35.402C50.4686 35.0712 50.1733 35.4847 50.0551 35.7564V35.78Z" fill="white"/>
<path d="M40.1676 33.0843C40.0967 33.5569 41.1009 33.8995 41.538 33.5569C41.7861 33.3679 41.7153 32.9544 41.0655 32.7772C40.4157 32.6 40.2031 32.8953 40.1676 33.0843Z" fill="white"/>
<path d="M30.1846 30.9825C30.1846 31.266 30.7871 31.4432 31.0352 31.2188C31.2833 30.9943 31.1179 30.8407 30.7044 30.7462C30.2909 30.6517 30.1964 30.8643 30.1846 30.9825Z" fill="white"/>
<path d="M20.3673 29.5649L20.5209 29.494L20.3909 29.3877L20.2373 29.4586L20.3673 29.5649Z" fill="white"/>
<path d="M159.145 168.745L159.369 168.969L159.546 168.768L159.31 168.567L159.145 168.745Z" fill="white"/>
<path d="M157.455 159.257C157.089 159.257 157.03 159.753 157.349 160.025C157.668 160.296 158.105 160.131 158.058 159.765C158.028 159.63 157.951 159.509 157.84 159.425C157.73 159.341 157.594 159.298 157.455 159.304V159.257Z" fill="white"/>
<path d="M155.092 150.112C154.549 150.206 154.49 150.915 155.022 151.293C155.553 151.671 156.203 151.4 156.073 150.832C156.073 150.832 156.073 150.832 156.073 150.762C156.01 150.558 155.879 150.382 155.704 150.262C155.528 150.142 155.317 150.085 155.104 150.1L155.092 150.112Z" fill="white"/>
<path d="M152.233 141.215C151.548 141.369 151.536 142.266 152.233 142.727C152.93 143.188 153.722 142.798 153.545 142.054C153.545 142.054 153.545 141.995 153.545 141.959C153.448 141.709 153.269 141.498 153.037 141.363C152.805 141.228 152.534 141.176 152.269 141.215H152.233Z" fill="white"/>
<path d="M148.819 132.487C147.969 132.723 148.016 133.857 148.914 134.377C149.812 134.897 150.757 134.377 150.485 133.456V133.337C150.35 133.032 150.115 132.782 149.819 132.627C149.523 132.473 149.183 132.423 148.855 132.487H148.819Z" fill="white"/>
<path d="M144.897 124.003C143.917 124.334 144.07 125.669 145.145 126.212C146.22 126.755 147.272 126.058 146.882 125.031V124.912C146.714 124.561 146.428 124.279 146.075 124.115C145.721 123.952 145.322 123.916 144.945 124.015L144.897 124.003Z" fill="white"/>
<path d="M140.491 115.796C139.439 116.233 139.711 117.722 140.94 118.277C142.168 118.832 143.22 118.064 142.842 116.965C142.811 116.866 142.767 116.77 142.712 116.682C142.505 116.296 142.169 115.995 141.763 115.833C141.357 115.671 140.906 115.658 140.491 115.796Z" fill="white"/>
<path d="M135.623 107.867C134.442 108.458 134.962 110.23 136.438 110.62C137.915 111.01 138.801 110.029 138.187 108.859L138.104 108.706C137.858 108.294 137.473 107.984 137.018 107.83C136.564 107.676 136.069 107.69 135.623 107.867Z" fill="white"/>
<path d="M130.284 100.27C129.102 100.956 129.764 102.763 131.335 103.141C132.907 103.519 133.769 102.373 133.048 101.168C133.009 101.12 132.973 101.069 132.942 101.015C132.657 100.598 132.234 100.296 131.748 100.16C131.262 100.024 130.744 100.063 130.284 100.27Z" fill="white"/>
<path d="M124.565 93.0161C123.384 93.8076 124.211 95.6624 125.877 95.9814C127.542 96.3003 128.334 95.0244 127.507 93.7958L127.389 93.6422C127.071 93.2178 126.611 92.9214 126.093 92.8066C125.575 92.6917 125.033 92.766 124.565 93.0161Z" fill="white"/>
<path d="M118.47 86.0465C117.288 86.9326 118.293 88.7874 120.017 89.0236C121.742 89.2599 122.451 87.8423 121.518 86.6609L121.388 86.5073C121.037 86.0946 120.549 85.8213 120.014 85.7367C119.479 85.6522 118.931 85.7621 118.47 86.0465Z" fill="white"/>
<path d="M111.889 79.5007C110.826 80.4458 111.889 82.2533 113.625 82.3832C115.362 82.5132 115.988 81.131 114.949 80.0205L114.807 79.8787C114.443 79.4797 113.945 79.2271 113.408 79.1684C112.871 79.1097 112.331 79.2488 111.889 79.5597V79.5007Z" fill="white"/>
<path d="M105.014 73.336C104.057 74.3165 105.226 76.0177 106.88 76.0532C107.167 76.0878 107.458 76.0307 107.711 75.8901C107.963 75.7495 108.165 75.5326 108.287 75.2705C108.409 75.0083 108.445 74.7142 108.389 74.4304C108.334 74.1466 108.19 73.8876 107.979 73.6904L107.825 73.5486C107.453 73.1892 106.965 72.9757 106.448 72.9475C105.932 72.9193 105.422 73.0782 105.014 73.3951V73.336Z" fill="white"/>
<path d="M97.7715 67.5676C96.8737 68.619 98.2795 70.2493 99.9098 70.0603C101.209 69.9185 101.741 68.6308 100.465 67.5676C100.097 67.2314 99.6167 67.0449 99.1183 67.0449C98.6199 67.0449 98.1395 67.2314 97.7715 67.5676Z" fill="white"/>
<path d="M90.1158 62.2063C89.3597 63.2578 90.801 64.7227 92.3132 64.4628C93.4 64.2738 94.0026 63.0806 92.644 62.1C92.2811 61.8052 91.8218 61.6553 91.3549 61.6793C90.888 61.7033 90.4465 61.8995 90.1158 62.23V62.2063Z" fill="white"/>
<path d="M82.2723 57.2913C81.658 58.2837 83.0521 59.5359 84.4107 59.2288C85.3794 59.0043 85.8401 57.882 84.5406 57.0432C84.2019 56.7881 83.7788 56.6718 83.3573 56.7179C82.9359 56.764 82.5478 56.969 82.2723 57.2913Z" fill="white"/>
<path d="M74.0498 52.8495C73.5772 53.7474 74.9122 54.7988 76.0818 54.4562C76.9205 54.2081 77.2631 53.2039 76.0818 52.5187C75.7713 52.31 75.3927 52.228 75.0236 52.2895C74.6546 52.351 74.323 52.5514 74.097 52.8495H74.0498Z" fill="white"/>
<path d="M65.5321 48.7862C65.1777 49.5777 66.3827 50.4165 67.3632 50.0621C68.1311 49.7904 68.1902 48.8807 67.1978 48.4082C66.2055 47.9356 65.6857 48.4082 65.5321 48.7862Z" fill="white"/>
<path d="M56.695 45.2307C56.4588 45.9159 57.6283 46.5657 58.3726 46.164C58.9161 45.8686 58.8452 45.1716 58.0418 44.829C57.2385 44.4864 56.8014 44.9117 56.695 45.2307Z" fill="white"/>
<path d="M47.5861 42.2187C47.4561 42.7503 48.3422 43.1638 48.8738 42.833C49.2164 42.6203 49.2164 42.1124 48.5666 41.8879C47.9169 41.6634 47.6452 41.9824 47.5861 42.2187Z" fill="white"/>
<path d="M38.2178 39.5952C38.1587 39.9497 38.7848 40.2096 39.1274 39.9615C39.47 39.7134 39.281 39.4417 38.8557 39.3117C38.4304 39.1818 38.2414 39.4298 38.2178 39.5952Z" fill="white"/>
<path d="M28.9556 37.7762L29.251 37.6462L29.0383 37.4336L28.7666 37.5635L28.9556 37.7762Z" fill="white"/>
<path d="M149.895 168.224L149.93 168.247L149.954 168.224L149.918 168.212L149.895 168.224Z" fill="white"/>
<path d="M148.241 159.468C148.196 159.47 148.153 159.486 148.118 159.514C148.083 159.543 148.058 159.581 148.047 159.624C148.035 159.667 148.037 159.713 148.053 159.755C148.069 159.797 148.097 159.833 148.135 159.858C148.335 160.011 148.595 159.929 148.572 159.728C148.551 159.657 148.507 159.596 148.447 159.553C148.387 159.51 148.314 159.488 148.241 159.491V159.468Z" fill="white"/>
<path d="M146.031 150.904C145.63 150.975 145.571 151.424 145.937 151.66C146.303 151.897 146.764 151.719 146.717 151.341C146.663 151.211 146.568 151.102 146.446 151.032C146.324 150.961 146.183 150.933 146.043 150.952L146.031 150.904Z" fill="white"/>
<path d="M143.278 142.482C142.723 142.612 142.652 143.227 143.148 143.569C143.645 143.912 144.424 143.64 144.33 143.073C144.33 143.073 144.33 143.073 144.33 143.002C144.247 142.814 144.103 142.659 143.92 142.564C143.737 142.47 143.527 142.441 143.326 142.482H143.278Z" fill="white"/>
<path d="M140.113 134.28C139.428 134.481 139.38 135.296 140.042 135.686C140.703 136.075 141.672 135.686 141.46 134.965C141.463 134.937 141.463 134.91 141.46 134.882C141.338 134.649 141.141 134.462 140.902 134.353C140.662 134.244 140.393 134.218 140.136 134.28H140.113Z" fill="white"/>
<path d="M136.45 126.32C135.612 126.627 135.671 127.655 136.568 128.045C137.466 128.435 138.376 127.844 138.092 127.041V126.946C137.942 126.671 137.7 126.458 137.409 126.343C137.117 126.229 136.795 126.221 136.498 126.32H136.45Z" fill="white"/>
<path d="M132.327 118.606C131.406 118.996 131.559 120.166 132.587 120.556C133.615 120.945 134.607 120.213 134.217 119.374V119.268C134.031 118.966 133.744 118.739 133.406 118.629C133.069 118.519 132.703 118.532 132.374 118.665L132.327 118.606Z" fill="white"/>
<path d="M127.755 111.139C126.751 111.647 127.011 112.947 128.181 113.313C129.35 113.679 130.39 112.781 129.906 111.824C129.891 111.783 129.871 111.743 129.846 111.706C129.621 111.38 129.288 111.144 128.905 111.04C128.522 110.936 128.115 110.971 127.755 111.139Z" fill="white"/>
<path d="M122.77 103.98C121.766 104.582 122.132 105.953 123.384 106.272C124.636 106.591 125.747 105.586 125.109 104.582L125.038 104.464C124.78 104.126 124.409 103.892 123.993 103.803C123.577 103.714 123.144 103.777 122.77 103.98Z" fill="white"/>
<path d="M117.406 97.1389C116.414 97.8241 116.886 99.2182 118.186 99.5017C119.485 99.7852 120.549 98.6511 119.84 97.6351L119.757 97.517C119.471 97.185 119.076 96.9658 118.643 96.8987C118.21 96.8316 117.767 96.9209 117.394 97.1508L117.406 97.1389Z" fill="white"/>
<path d="M111.629 90.6532C110.66 91.4211 111.239 92.8388 112.598 93.016C113.956 93.1932 114.961 92.0118 114.145 91.0194L114.051 90.9013C113.749 90.5685 113.336 90.3582 112.889 90.3103C112.443 90.2623 111.994 90.3802 111.629 90.6414V90.6532Z" fill="white"/>
<path d="M105.474 84.4381C104.565 85.2533 105.238 86.6355 106.585 86.8009C107.932 86.9663 108.794 85.6195 107.991 84.7216L107.884 84.6035C107.569 84.3049 107.157 84.1298 106.723 84.1102C106.289 84.0907 105.863 84.2281 105.522 84.4972L105.474 84.4381Z" fill="white"/>
<path d="M99.0237 78.6169C98.1495 79.5148 99.0237 80.897 100.43 80.8379C101.611 80.8379 102.473 79.6565 101.375 78.5933C101.052 78.2977 100.631 78.1338 100.193 78.1338C99.7559 78.1338 99.3343 78.2977 99.0119 78.5933L99.0237 78.6169Z" fill="white"/>
<path d="M92.2191 73.1697C91.463 74.0676 92.3963 75.3435 93.7076 75.2017C95.019 75.0599 95.4797 73.9022 94.4519 73.028C94.1265 72.7752 93.7199 72.6501 93.3087 72.6762C92.8974 72.7024 92.5099 72.8779 92.2191 73.1697Z" fill="white"/>
<path d="M85.0832 68.114C84.4453 68.9882 85.3904 70.1342 86.5954 69.9452C86.8364 69.9384 87.0686 69.8534 87.257 69.7031C87.4454 69.5527 87.5798 69.3451 87.6398 69.1117C87.6999 68.8782 87.6823 68.6316 87.5898 68.409C87.4973 68.1864 87.3348 67.9999 87.127 67.8777C86.8184 67.6547 86.4375 67.5552 86.0593 67.599C85.681 67.6427 85.3328 67.8264 85.0832 68.114Z" fill="white"/>
<path d="M77.6645 63.4817C77.1565 64.2969 78.0661 65.2656 79.1176 65.0293C79.3331 65.0113 79.5367 64.9224 79.6965 64.7766C79.8563 64.6309 79.9634 64.4363 80.0012 64.2233C80.0389 64.0103 80.0052 63.7908 79.9052 63.599C79.8052 63.4072 79.6446 63.2538 79.4484 63.1627C79.1662 62.979 78.8247 62.9096 78.4932 62.9689C78.1618 63.0282 77.8654 63.2116 77.6645 63.4817Z" fill="white"/>
<path d="M69.9028 59.229C69.513 59.9733 70.3872 60.7766 71.3087 60.5167C71.4938 60.483 71.6629 60.3896 71.7901 60.2508C71.9172 60.112 71.9954 59.9354 72.0129 59.748C72.0303 59.5606 71.9859 59.3726 71.8865 59.2128C71.787 59.053 71.6381 58.93 71.4623 58.8628C71.2038 58.7168 70.8999 58.6734 70.611 58.7413C70.3221 58.8091 70.0692 58.9833 69.9028 59.229Z" fill="white"/>
<path d="M61.8933 55.4116C61.6097 56.0495 62.3777 56.6875 63.1337 56.4276C63.8898 56.1677 63.9725 55.447 63.1337 55.0454C63.0275 54.987 62.9108 54.9502 62.7903 54.9371C62.6699 54.9239 62.5479 54.9347 62.4316 54.9687C62.3153 55.0027 62.2068 55.0593 62.1124 55.1353C62.018 55.2113 61.9395 55.3052 61.8815 55.4116H61.8933Z" fill="white"/>
<path d="M53.5761 52.0458C53.3871 52.5893 54.0959 53.05 54.6748 52.7547C55.0646 52.5538 55.171 51.9749 54.533 51.7032C54.3602 51.6254 54.1639 51.6176 53.9854 51.6815C53.807 51.7454 53.6603 51.876 53.5761 52.0458Z" fill="white"/>
<path d="M44.9872 49.1392C44.8808 49.529 45.4243 49.8362 45.8141 49.5999C46.204 49.3636 46.0859 49.0092 45.6606 48.8438C45.5319 48.7968 45.39 48.8013 45.2646 48.8563C45.1391 48.9113 45.0397 49.0127 44.9872 49.1392Z" fill="white"/>
<path d="M36.1504 46.7056C36.1498 46.7593 36.1645 46.812 36.1927 46.8577C36.2209 46.9034 36.2615 46.9401 36.3097 46.9637C36.358 46.9872 36.4119 46.9965 36.4653 46.9906C36.5187 46.9846 36.5692 46.9636 36.6111 46.9301C36.7765 46.8238 36.7529 46.5993 36.5048 46.5284C36.4343 46.5088 36.359 46.516 36.2935 46.5488C36.228 46.5815 36.177 46.6374 36.1504 46.7056Z" fill="white"/>
<path d="M27.2665 44.8151L27.2897 44.8035L27.2665 44.7803L27.2549 44.7919L27.2665 44.8151Z" fill="white"/>
<path d="M138.459 159.93L138.494 159.954L138.518 159.918L138.483 159.906L138.459 159.93Z" fill="white"/>
<path d="M136.427 151.897C136.387 151.902 136.349 151.918 136.319 151.946C136.289 151.973 136.268 152.009 136.261 152.048C136.253 152.088 136.258 152.129 136.275 152.166C136.292 152.203 136.32 152.233 136.356 152.252C136.557 152.405 136.829 152.252 136.805 152.098C136.772 152.03 136.716 151.975 136.647 151.943C136.579 151.91 136.501 151.903 136.427 151.921V151.897Z" fill="white"/>
<path d="M133.91 144.04C133.834 144.049 133.762 144.083 133.707 144.137C133.652 144.19 133.615 144.26 133.603 144.337C133.591 144.413 133.604 144.491 133.64 144.559C133.677 144.627 133.734 144.681 133.804 144.713C134.17 144.938 134.666 144.713 134.584 144.383C134.52 144.268 134.422 144.178 134.302 144.124C134.183 144.071 134.05 144.058 133.922 144.087L133.91 144.04Z" fill="white"/>
<path d="M127.531 128.954C127.402 128.99 127.289 129.068 127.209 129.175C127.128 129.281 127.085 129.411 127.085 129.544C127.085 129.678 127.128 129.808 127.209 129.914C127.289 130.021 127.402 130.099 127.531 130.135C128.216 130.454 129.031 129.993 128.818 129.403C128.823 129.379 128.823 129.355 128.818 129.332C128.692 129.145 128.508 129.006 128.294 128.935C128.08 128.864 127.849 128.867 127.637 128.942L127.531 128.954Z" fill="white"/>
<path d="M123.691 121.749C123.535 121.79 123.396 121.882 123.296 122.01C123.197 122.138 123.144 122.296 123.144 122.458C123.144 122.62 123.197 122.778 123.296 122.906C123.396 123.034 123.535 123.126 123.691 123.167C124.53 123.498 125.428 122.895 125.145 122.198V122.127C124.984 121.906 124.751 121.747 124.486 121.678C124.221 121.609 123.94 121.634 123.691 121.749Z" fill="white"/>
<path d="M119.439 114.779C119.268 114.845 119.125 114.965 119.029 115.121C118.933 115.276 118.891 115.458 118.908 115.64C118.925 115.822 119.002 115.993 119.125 116.128C119.249 116.262 119.413 116.353 119.592 116.385C120.537 116.704 121.53 115.972 121.163 115.204C121.163 115.204 121.163 115.145 121.163 115.11C120.966 114.869 120.691 114.703 120.385 114.641C120.08 114.578 119.762 114.623 119.486 114.767L119.439 114.779Z" fill="white"/>
<path d="M114.808 108.092C114.624 108.173 114.473 108.312 114.377 108.488C114.281 108.664 114.246 108.867 114.277 109.065C114.308 109.263 114.403 109.445 114.548 109.583C114.693 109.721 114.88 109.808 115.079 109.829C116.119 110.112 117.135 109.25 116.686 108.447L116.627 108.364C116.404 108.112 116.1 107.946 115.767 107.897C115.434 107.847 115.094 107.916 114.808 108.092Z" fill="white"/>
<path d="M109.81 101.699C109.628 101.798 109.483 101.953 109.397 102.142C109.31 102.33 109.287 102.541 109.331 102.743C109.375 102.946 109.484 103.129 109.64 103.264C109.797 103.4 109.993 103.481 110.2 103.495C111.299 103.731 112.291 102.763 111.771 101.959L111.7 101.865C111.455 101.619 111.131 101.468 110.785 101.438C110.44 101.408 110.094 101.5 109.81 101.699Z" fill="white"/>
<path d="M104.423 95.5776C104.239 95.7066 104.102 95.8923 104.034 96.1062C103.966 96.3202 103.969 96.5506 104.044 96.7622C104.119 96.9739 104.262 97.1552 104.449 97.2783C104.637 97.4015 104.86 97.4597 105.084 97.4442C106.183 97.5269 107.104 96.5345 106.396 95.6603C106.13 95.4146 105.786 95.2714 105.424 95.2562C105.063 95.2411 104.708 95.355 104.423 95.5776Z" fill="white"/>
<path d="M98.7168 89.8148C98.5477 89.957 98.429 90.1499 98.3781 90.3649C98.3273 90.5799 98.3471 90.8056 98.4346 91.0084C98.5221 91.2113 98.6727 91.3805 98.864 91.4911C99.0552 91.6017 99.277 91.6477 99.4965 91.6223C100.583 91.6223 101.422 90.6063 100.678 89.7675C100.408 89.5363 100.064 89.4092 99.7091 89.4092C99.3538 89.4092 99.0102 89.5363 98.7404 89.7675L98.7168 89.8148Z" fill="white"/>
<path d="M92.6916 84.3692C91.9828 85.1135 92.4908 86.1176 93.5541 86.0822C94.6173 86.0468 95.3379 84.9835 94.5464 84.2274C94.2712 84.0258 93.933 83.9293 93.5928 83.9553C93.2527 83.9813 92.933 84.1281 92.6916 84.3692Z" fill="white"/>
<path d="M86.3243 79.2644C86.1841 79.4177 86.0968 79.612 86.0755 79.8187C86.0541 80.0254 86.0997 80.2335 86.2056 80.4122C86.3116 80.591 86.4721 80.7309 86.6637 80.8114C86.8552 80.8919 87.0676 80.9087 87.2694 80.8593C88.2618 80.7766 88.8879 79.6779 88.0846 79.0399C87.8146 78.8552 87.4863 78.776 87.1618 78.8174C86.8373 78.8587 86.5393 79.0178 86.3243 79.2644Z" fill="white"/>
<path d="M79.685 74.5403C79.572 74.6901 79.5087 74.8715 79.5042 75.0591C79.4996 75.2467 79.5539 75.431 79.6595 75.5862C79.7651 75.7413 79.9166 75.8594 80.0928 75.924C80.269 75.9886 80.4611 75.9963 80.6419 75.9461C81.5634 75.8162 81.9769 74.8238 81.3389 74.2922L81.2562 74.2213C81.0022 74.0671 80.6994 74.0143 80.4082 74.0734C80.117 74.1325 79.8588 74.2992 79.685 74.5403Z" fill="white"/>
<path d="M72.7031 70.1572C72.6261 70.3014 72.5934 70.4652 72.6094 70.6279C72.6254 70.7906 72.6893 70.945 72.793 71.0714C72.8967 71.1978 73.0355 71.2907 73.1919 71.3382C73.3483 71.3858 73.5153 71.3859 73.6718 71.3386C74.4988 71.185 74.8532 70.2635 74.1917 69.8146C74.1917 69.8146 74.1917 69.8146 74.1208 69.8146C73.8827 69.6869 73.6056 69.6525 73.3435 69.718C73.0814 69.7835 72.8531 69.9443 72.7031 70.169V70.1572Z" fill="white"/>
<path d="M65.4845 66.1893C65.4163 66.3173 65.3891 66.4631 65.4065 66.6071C65.4238 66.7511 65.4849 66.8863 65.5815 66.9944C65.678 67.1026 65.8055 67.1786 65.9466 67.212C66.0877 67.2455 66.2356 67.2349 66.3705 67.1816C66.5145 67.1623 66.6495 67.1005 66.7583 67.0042C66.8671 66.9079 66.9448 66.7814 66.9816 66.6409C67.0183 66.5003 67.0124 66.3519 66.9646 66.2147C66.9168 66.0775 66.8293 65.9576 66.7131 65.8703C66.6938 65.8653 66.6734 65.8653 66.6541 65.8703C66.4483 65.7653 66.2096 65.7448 65.9889 65.8132C65.7682 65.8816 65.583 66.0335 65.4727 66.2365L65.4845 66.1893Z" fill="white"/>
<path d="M57.982 62.6075C57.9488 62.7148 57.9463 62.8294 57.9747 62.9381C58.0031 63.0468 58.0614 63.1455 58.1429 63.2228C58.2244 63.3002 58.326 63.3532 58.4361 63.3759C58.5462 63.3985 58.6604 63.3899 58.7659 63.3511C58.8713 63.3122 58.9638 63.2446 59.0329 63.156C59.102 63.0673 59.1449 62.9611 59.1567 62.8493C59.1686 62.7375 59.149 62.6247 59.1 62.5235C59.0511 62.4223 58.9749 62.3368 58.8799 62.2767C58.7163 62.2068 58.5322 62.2022 58.3652 62.2637C58.1983 62.3252 58.0612 62.4482 57.982 62.6075Z" fill="white"/>
<path d="M50.2087 59.44C50.1833 59.525 50.1844 59.6157 50.2118 59.7001C50.2393 59.7845 50.2917 59.8586 50.3622 59.9124C50.4328 59.9663 50.518 59.9974 50.6067 60.0016C50.6953 60.0059 50.7831 59.983 50.8584 59.9362C50.9352 59.9055 51.001 59.8525 51.0474 59.7841C51.0937 59.7156 51.1185 59.6349 51.1185 59.5522C51.1185 59.4695 51.0937 59.3888 51.0474 59.3203C51.001 59.2519 50.9352 59.1989 50.8584 59.1683C50.7373 59.1271 50.6053 59.1321 50.4876 59.1822C50.3699 59.2323 50.2748 59.3241 50.2205 59.44H50.2087Z" fill="white"/>
<path d="M42.1871 56.7117C42.1817 56.7623 42.1905 56.8135 42.2127 56.8593C42.2349 56.9051 42.2696 56.9437 42.3127 56.9708C42.3558 56.9979 42.4056 57.0124 42.4565 57.0125C42.5074 57.0126 42.5574 56.9985 42.6006 56.9716C42.6439 56.9538 42.681 56.9235 42.7071 56.8846C42.7332 56.8457 42.7471 56.7999 42.7471 56.7531C42.7471 56.7062 42.7332 56.6604 42.7071 56.6215C42.681 56.5826 42.6439 56.5523 42.6006 56.5345C42.5285 56.5115 42.4503 56.517 42.3821 56.55C42.314 56.583 42.2611 56.6409 42.2344 56.7117H42.1871Z" fill="white"/>
<path d="M33.9768 54.4913L34.0714 54.4558L34.0241 54.3613L33.9414 54.4204L33.9768 54.4913Z" fill="white"/>
<path d="M126.35 153.127L126.373 153.138L126.396 153.115L126.361 153.104L126.35 153.127Z" fill="white"/>
<path d="M123.88 146.051L124.175 146.18L124.376 145.956L124.057 145.838L123.88 146.051Z" fill="white"/>
<path d="M121.305 138.783C121.009 138.866 120.95 139.149 121.198 139.291C121.446 139.433 121.966 139.291 121.895 138.984C121.835 138.891 121.744 138.823 121.638 138.79C121.532 138.758 121.418 138.764 121.316 138.806L121.305 138.783Z" fill="white"/>
<path d="M118.163 131.894C117.737 132.059 117.702 132.484 118.092 132.638C118.482 132.792 119.143 132.508 118.978 132.095C118.885 131.974 118.754 131.888 118.605 131.852C118.457 131.815 118.301 131.83 118.163 131.894Z" fill="white"/>
<path d="M114.618 125.21C114.145 125.422 114.027 125.942 114.523 126.155C115.02 126.367 115.882 125.942 115.705 125.47C115.577 125.324 115.404 125.226 115.213 125.189C115.023 125.153 114.826 125.181 114.653 125.269L114.618 125.21Z" fill="white"/>
<path d="M110.708 118.77C110.153 119.065 110.141 119.668 110.708 119.857C111.275 120.046 112.232 119.526 111.996 118.994C111.846 118.839 111.649 118.737 111.435 118.705C111.221 118.673 111.003 118.713 110.814 118.817L110.708 118.77Z" fill="white"/>
<path d="M106.42 112.569C105.794 112.959 105.865 113.668 106.55 113.751C107.235 113.833 108.18 113.254 107.731 112.628C107.55 112.456 107.316 112.35 107.067 112.328C106.818 112.307 106.569 112.371 106.361 112.51L106.42 112.569Z" fill="white"/>
<path d="M101.812 106.651C101.174 107.1 101.292 107.832 102.024 107.95C102.757 108.068 103.702 107.324 103.206 106.674C103 106.518 102.749 106.434 102.491 106.434C102.233 106.434 101.982 106.518 101.776 106.674L101.812 106.651Z" fill="white"/>
<path d="M96.8618 101.003C96.2357 101.499 96.4129 102.255 97.1572 102.314C97.9014 102.373 98.8229 101.57 98.3386 100.944C98.1234 100.787 97.8617 100.708 97.5958 100.719C97.33 100.729 97.0755 100.83 96.8737 101.003H96.8618Z" fill="white"/>
<path d="M91.5811 95.6284C90.9904 96.1718 91.2149 96.9161 91.971 96.9397C92.7271 96.9634 93.5658 96.1009 93.0342 95.4984C92.8124 95.3543 92.5487 95.2888 92.2852 95.3123C92.0217 95.3359 91.7738 95.4472 91.5811 95.6284Z" fill="white"/>
<path d="M85.97 90.559C85.4738 91.0788 85.651 91.8585 86.4543 91.8467C87.2577 91.8349 87.9901 90.9252 87.4113 90.3464C87.1818 90.2156 86.9152 90.1655 86.6539 90.2041C86.3927 90.2426 86.1519 90.3676 85.97 90.559Z" fill="white"/>
<path d="M80.11 85.8332C79.9869 85.9225 79.8983 86.0515 79.8592 86.1985C79.8201 86.3454 79.8328 86.5014 79.8952 86.6401C79.9576 86.7788 80.0659 86.8918 80.2019 86.96C80.3378 87.0282 80.4931 87.0474 80.6416 87.0145C81.4095 87.0145 81.9293 86.1049 81.4685 85.6441H81.4095C81.1983 85.5223 80.9499 85.4814 80.7107 85.5293C80.4716 85.5771 80.2581 85.7103 80.11 85.904V85.8332Z" fill="white"/>
<path d="M73.9428 81.4261C73.5529 81.9577 73.8719 82.6074 74.498 82.4657C75.1242 82.3239 75.6794 81.5324 75.1006 81.1189C74.9006 81.0145 74.669 80.9881 74.4507 81.0449C74.2324 81.1017 74.043 81.2375 73.9192 81.4261H73.9428Z" fill="white"/>
<path d="M67.516 77.3739C67.2443 77.7992 67.516 78.3309 68.0476 78.2245C68.5793 78.1182 68.9691 77.3976 68.4729 77.0432C68.3043 76.9627 68.1114 76.9496 67.9335 77.0067C67.7556 77.0638 67.6062 77.1867 67.516 77.3503V77.3739Z" fill="white"/>
<path d="M60.8182 73.6772C60.7645 73.7552 60.7376 73.8485 60.7416 73.9431C60.7455 74.0377 60.7801 74.1284 60.84 74.2017C60.9 74.2749 60.9821 74.3268 61.074 74.3494C61.1659 74.3719 61.2627 74.3641 61.3498 74.327C61.7751 74.1852 61.9759 73.6063 61.5861 73.3819C61.4445 73.3246 61.2864 73.3232 61.1438 73.378C61.0013 73.4329 60.8849 73.5398 60.8182 73.6772Z" fill="white"/>
<path d="M53.859 70.348C53.8298 70.4084 53.8198 70.4763 53.8301 70.5426C53.8405 70.6088 53.8707 70.6704 53.9168 70.7191C53.963 70.7678 54.0228 70.8013 54.0884 70.8152C54.1541 70.8291 54.2224 70.8227 54.2843 70.7969C54.6033 70.6788 54.7096 70.2535 54.4024 70.0999C54.2972 70.0646 54.1826 70.0706 54.0817 70.1166C53.9808 70.1627 53.9012 70.2454 53.859 70.348Z" fill="white"/>
<path d="M46.7712 67.6409L47.0547 67.5228L46.9602 67.2393L46.6885 67.381L46.7712 67.6409Z" fill="white"/>
<path d="M39.2811 64.8747H39.3043L39.2927 64.8398L39.2695 64.8515L39.2811 64.8747Z" fill="white"/>
<path d="M111.157 141.536L111.334 141.583L111.429 141.465L111.264 141.418L111.157 141.536Z" fill="white"/>
<path d="M108.368 135.107C108.132 135.202 108.085 135.391 108.274 135.473C108.463 135.556 108.876 135.391 108.794 135.19C108.711 134.989 108.522 135.048 108.368 135.107Z" fill="white"/>
<path d="M105.155 129.015C104.824 129.157 104.824 129.428 105.06 129.511C105.297 129.594 105.864 129.357 105.746 129.074C105.628 128.79 105.32 128.932 105.155 129.074V129.015Z" fill="white"/>
<path d="M101.564 123.094C101.186 123.295 101.151 123.661 101.493 123.756C101.836 123.85 102.545 123.508 102.355 123.142C102.166 122.775 101.777 122.976 101.564 123.142V123.094Z" fill="white"/>
<path d="M97.665 117.414C97.2751 117.662 97.2633 118.075 97.665 118.17C98.0667 118.264 98.8464 117.863 98.551 117.437C98.4273 117.342 98.2757 117.291 98.1198 117.291C97.9639 117.291 97.8124 117.342 97.6886 117.437L97.665 117.414Z" fill="white"/>
<path d="M93.4362 111.919C92.9991 112.226 93.0227 112.675 93.4362 112.758C93.8497 112.841 94.6176 112.297 94.405 111.919C94.2655 111.814 94.0954 111.757 93.9206 111.757C93.7458 111.757 93.5757 111.814 93.4362 111.919Z" fill="white"/>
<path d="M88.9347 106.78C88.5094 107.123 88.5449 107.595 89.0056 107.642C89.4664 107.69 90.2579 107.099 89.9271 106.686C89.7752 106.587 89.5946 106.543 89.4145 106.56C89.2344 106.577 89.0653 106.655 88.9347 106.78Z" fill="white"/>
<path d="M84.0792 101.854C83.6775 102.22 83.7484 102.692 84.2209 102.728C84.6935 102.763 85.4023 102.102 85.0951 101.736C84.788 101.476 84.3273 101.736 84.1146 101.889L84.0792 101.854Z" fill="white"/>
<path d="M78.9637 97.2121C78.6093 97.5783 78.7156 98.0273 79.1645 98.0391C79.6135 98.0509 80.2278 97.3893 79.9324 97.0467C79.6253 96.8222 79.2118 97.0467 78.9991 97.2475L78.9637 97.2121Z" fill="white"/>
<path d="M73.5764 92.8518C73.2692 93.218 73.3874 93.6315 73.8009 93.6079C74.2143 93.5842 74.7696 92.9463 74.4034 92.6273C74.2613 92.5605 74.1001 92.5464 73.9486 92.5876C73.7971 92.6287 73.6652 92.7223 73.5764 92.8518Z" fill="white"/>
<path d="M67.9421 88.7986C67.694 89.153 67.8475 89.5074 68.2256 89.4365C68.6036 89.3656 68.9698 88.8104 68.6509 88.5623C68.5234 88.5162 68.384 88.5144 68.2554 88.5573C68.1268 88.6002 68.0164 88.6852 67.9421 88.7986Z" fill="white"/>
<path d="M62.0463 85.0667C61.8573 85.3739 62.0463 85.6456 62.3062 85.5747C62.5661 85.5038 62.8733 85.0431 62.5898 84.8541C62.3063 84.6651 62.1645 84.8541 62.0463 85.0667Z" fill="white"/>
<path d="M55.8562 81.6622C55.7498 81.8749 55.8562 82.0639 56.0688 82.0048C56.2815 81.9457 56.4351 81.6149 56.2342 81.4968C56.1618 81.4751 56.0841 81.4799 56.0148 81.5101C55.9456 81.5404 55.8894 81.5943 55.8562 81.6622Z" fill="white"/>
<path d="M49.5832 78.7333L49.7368 78.6624L49.7132 78.5088L49.5596 78.5797L49.5832 78.7333Z" fill="white"/>
<path d="M95.1963 133.183L95.338 133.207L95.4089 133.101L95.2672 133.089L95.1963 133.183Z" fill="white"/>
<path d="M91.9121 127.95L92.2075 127.962L92.3492 127.737L92.0539 127.726L91.9121 127.95Z" fill="white"/>
<path d="M88.5095 122.552C88.3205 122.67 88.285 122.847 88.4504 122.894C88.6158 122.941 89.0411 122.705 88.9348 122.528C88.8285 122.351 88.6277 122.528 88.5095 122.528V122.552Z" fill="white"/>
<path d="M84.6939 117.66C84.4695 117.813 84.4458 118.038 84.6939 118.073C84.942 118.109 85.3909 117.825 85.2373 117.601C85.0838 117.376 84.8711 117.601 84.7412 117.601L84.6939 117.66Z" fill="white"/>
<path d="M80.665 112.957C80.4523 113.122 80.405 113.37 80.665 113.406C80.9249 113.441 81.3856 113.087 81.2202 112.862C81.0548 112.638 80.8421 112.862 80.6886 112.957H80.665Z" fill="white"/>
<path d="M76.2354 108.48C76.0464 108.669 76.011 108.917 76.2354 108.941C76.4599 108.965 76.9324 108.575 76.7552 108.374C76.578 108.173 76.3772 108.374 76.2236 108.48H76.2354Z" fill="white"/>
<path d="M71.6154 104.274C71.4382 104.463 71.4618 104.688 71.6154 104.688C71.769 104.688 72.2061 104.322 72.0643 104.156C71.9462 104.062 71.7218 104.156 71.5918 104.298L71.6154 104.274Z" fill="white"/>
<path d="M66.7487 100.319C66.6188 100.484 66.6424 100.697 66.8432 100.673C67.0441 100.65 67.304 100.331 67.1504 100.189C66.9968 100.047 66.8551 100.189 66.7487 100.319Z" fill="white"/>
<path d="M61.6328 96.8818L61.9045 96.7873L61.94 96.5273L61.6683 96.6219L61.6328 96.8818Z" fill="white"/>
<path d="M56.3281 93.3588L56.4581 93.3116V93.1816L56.3281 93.2407V93.3588Z" fill="white"/>
<path d="M71.9824 119.526L72.0056 119.538L72.0172 119.503L71.9824 119.515V119.526Z" fill="white"/>
<path d="M68.0947 115.533L68.1179 115.545L68.1295 115.51L68.0947 115.521V115.533Z" fill="white"/>
<path d="M63.9727 111.763H63.9959L64.0075 111.729L63.9727 111.74V111.763Z" fill="white"/>
</g>
</svg>
