<svg width="80" height="81" viewBox="0 0 80 81" fill="none" xmlns="http://www.w3.org/2000/svg">
<path d="M52.5 16.3584L52.5 20.1084C52.5 20.7996 51.94 21.3584 51.25 21.3584C50.56 21.3584 50 20.7996 50 20.1084L50 16.3584C50 15.6671 50.56 15.1084 51.25 15.1084C51.94 15.1084 52.5 15.6671 52.5 16.3584Z" fill="url(#paint0_linear_2240_1942)"/>
<path d="M30 60.1084C30 60.7996 29.44 61.3584 28.75 61.3584L25 61.3584C24.31 61.3584 23.75 60.7996 23.75 60.1084C23.75 59.4171 24.31 58.8584 25 58.8584L28.75 58.8584C29.44 58.8584 30 59.4171 30 60.1084Z" fill="url(#paint1_linear_2240_1942)"/>
<path d="M26.25 60.1084C26.25 60.7996 25.69 61.3584 25 61.3584C22.2425 61.3584 20 59.1159 20 56.3584C20 55.6671 20.56 55.1084 21.25 55.1084C21.94 55.1084 22.5 55.6671 22.5 56.3584C22.5 57.7371 23.6212 58.8584 25 58.8584C25.69 58.8584 26.25 59.4171 26.25 60.1084Z" fill="url(#paint2_linear_2240_1942)"/>
<path d="M22.5 16.3584L22.5 56.3584C22.5 57.0496 21.94 57.6084 21.25 57.6084C20.56 57.6084 20 57.0496 20 56.3584L20 16.3584C20 15.6671 20.56 15.1084 21.25 15.1084C21.94 15.1084 22.5 15.6671 22.5 16.3584Z" fill="url(#paint3_linear_2240_1942)"/>
<path d="M52.5 16.3584C52.5 17.0496 51.94 17.6084 51.25 17.6084C50.56 17.6084 50 17.0496 50 16.3584C50 14.9796 48.8787 13.8584 47.5 13.8584C46.81 13.8584 46.25 13.2996 46.25 12.6084C46.25 11.9171 46.81 11.3584 47.5 11.3584C50.2575 11.3584 52.5 13.6009 52.5 16.3584Z" fill="url(#paint4_linear_2240_1942)"/>
<path d="M48.75 12.6084C48.75 13.2996 48.19 13.8584 47.5 13.8584L25 13.8584C24.31 13.8584 23.75 13.2996 23.75 12.6084C23.75 11.9171 24.31 11.3584 25 11.3584L47.5 11.3584C48.19 11.3584 48.75 11.9171 48.75 12.6084Z" fill="url(#paint5_linear_2240_1942)"/>
<path d="M26.25 12.6084C26.25 13.2996 25.69 13.8584 25 13.8584C23.6212 13.8584 22.5 14.9796 22.5 16.3584C22.5 17.0496 21.94 17.6084 21.25 17.6084C20.56 17.6084 20 17.0496 20 16.3584C20 13.6009 22.2425 11.3584 25 11.3584C25.69 11.3584 26.25 11.9171 26.25 12.6084Z" fill="url(#paint6_linear_2240_1942)"/>
<path d="M41.875 56.3584H34.375C33.6838 56.3584 33.125 55.7984 33.125 55.1084C33.125 54.4184 33.6838 53.8584 34.375 53.8584H41.875C42.5662 53.8584 43.125 54.4184 43.125 55.1084C43.125 55.7984 42.5662 56.3584 41.875 56.3584Z" fill="url(#paint7_linear_2240_1942)"/>
<path d="M49.375 61.3584H34.375C33.6838 61.3584 33.125 60.7984 33.125 60.1084C33.125 59.4184 33.6838 58.8584 34.375 58.8584H49.375C50.0662 58.8584 50.625 59.4184 50.625 60.1084C50.625 60.7984 50.0662 61.3584 49.375 61.3584Z" fill="url(#paint8_linear_2240_1942)"/>
<path d="M33.75 67.6084C33.75 68.2996 33.19 68.8584 32.5 68.8584C29.7425 68.8584 27.5 66.6159 27.5 63.8584C27.5 63.1671 28.06 62.6084 28.75 62.6084C29.44 62.6084 30 63.1671 30 63.8584C30 65.2371 31.1212 66.3584 32.5 66.3584C33.19 66.3584 33.75 66.9171 33.75 67.6084Z" fill="url(#paint9_linear_2240_1942)"/>
<path d="M30 23.8584L30 63.8584C30 64.5496 29.44 65.1084 28.75 65.1084C28.06 65.1084 27.5 64.5496 27.5 63.8584L27.5 23.8584C27.5 23.1671 28.06 22.6084 28.75 22.6084C29.44 22.6084 30 23.1671 30 23.8584Z" fill="url(#paint10_linear_2240_1942)"/>
<path d="M56.25 67.6084C56.25 68.2996 55.69 68.8584 55 68.8584L32.5 68.8584C31.81 68.8584 31.25 68.2996 31.25 67.6084C31.25 66.9171 31.81 66.3584 32.5 66.3584L55 66.3584C55.69 66.3584 56.25 66.9171 56.25 67.6084Z" fill="url(#paint11_linear_2240_1942)"/>
<path d="M60 63.8584C60 66.6159 57.7575 68.8584 55 68.8584C54.31 68.8584 53.75 68.2996 53.75 67.6084C53.75 66.9171 54.31 66.3584 55 66.3584C56.3787 66.3584 57.5 65.2371 57.5 63.8584C57.5 63.1671 58.06 62.6084 58.75 62.6084C59.44 62.6084 60 63.1671 60 63.8584Z" fill="url(#paint12_linear_2240_1942)"/>
<path d="M60 23.8584L60 63.8584C60 64.5496 59.44 65.1084 58.75 65.1084C58.06 65.1084 57.5 64.5496 57.5 63.8584L57.5 23.8584C57.5 23.1671 58.06 22.6084 58.75 22.6084C59.44 22.6084 60 23.1671 60 23.8584Z" fill="url(#paint13_linear_2240_1942)"/>
<path d="M60 23.8584C60 24.5496 59.44 25.1084 58.75 25.1084C58.06 25.1084 57.5 24.5496 57.5 23.8584C57.5 22.4796 56.3787 21.3584 55 21.3584C54.31 21.3584 53.75 20.7996 53.75 20.1084C53.75 19.4171 54.31 18.8584 55 18.8584C57.7575 18.8584 60 21.1009 60 23.8584Z" fill="url(#paint14_linear_2240_1942)"/>
<path d="M56.25 20.1084C56.25 20.7996 55.69 21.3584 55 21.3584L32.5 21.3584C31.81 21.3584 31.25 20.7996 31.25 20.1084C31.25 19.4171 31.81 18.8584 32.5 18.8584L55 18.8584C55.69 18.8584 56.25 19.4171 56.25 20.1084Z" fill="url(#paint15_linear_2240_1942)"/>
<path d="M33.75 20.1084C33.75 20.7996 33.19 21.3584 32.5 21.3584C31.1212 21.3584 30 22.4796 30 23.8584C30 24.5496 29.44 25.1084 28.75 25.1084C28.06 25.1084 27.5 24.5496 27.5 23.8584C27.5 21.1009 29.7425 18.8584 32.5 18.8584C33.19 18.8584 33.75 19.4171 33.75 20.1084Z" fill="url(#paint16_linear_2240_1942)"/>
<path fill-rule="evenodd" clip-rule="evenodd" d="M41.6398 34.0494C41.6824 34.0066 41.7037 33.9852 41.7265 33.967C41.7994 33.9091 41.8871 33.8726 41.9796 33.8618C42.0085 33.8584 42.0387 33.8584 42.0991 33.8584H43.946C44.0558 33.8584 44.1614 33.9007 44.2409 33.9765L45.5499 35.2247C45.8393 35.5006 45.984 35.6386 46.0088 35.8095C46.0151 35.8532 46.0156 35.8975 46.0103 35.9413C45.9896 36.1128 45.8482 36.2541 45.5655 36.5369C45.2956 36.8068 45.1606 36.9417 44.9956 36.9653C44.9533 36.9713 44.9104 36.9719 44.868 36.967C44.7024 36.948 44.5638 36.8168 44.2866 36.5545L41.6398 34.0494Z" fill="url(#paint17_linear_2240_1942)"/>
<path fill-rule="evenodd" clip-rule="evenodd" d="M44.2409 33.9765C44.1614 33.9007 44.0558 33.8584 43.946 33.8584H42.0991C42.0387 33.8584 42.0085 33.8584 41.9796 33.8618C41.8871 33.8726 41.7994 33.9091 41.7265 33.967C41.7037 33.9852 41.6824 34.0066 41.6398 34.0494L37.7522 37.9592C37.2011 38.5134 36.9256 38.7906 36.9562 39.0328C36.9675 39.122 37.0027 39.2065 37.058 39.2774C37.2081 39.47 37.5989 39.47 38.3805 39.47C38.5381 39.47 38.6168 39.47 38.6897 39.4472C38.7182 39.4382 38.7458 39.4268 38.7723 39.413C38.84 39.3775 38.8957 39.3218 39.0071 39.2104L44.2409 33.9765Z" fill="url(#paint18_linear_2240_1942)"/>
<path fill-rule="evenodd" clip-rule="evenodd" d="M46.0711 40.4301C46.0286 40.4729 46.0073 40.4943 45.9845 40.5124C45.9115 40.5704 45.8239 40.6069 45.7314 40.6177C45.7024 40.6211 45.6722 40.6211 45.6118 40.6211H43.765C43.6551 40.6211 43.5495 40.5788 43.47 40.503L42.1611 39.2548C41.8717 38.9788 41.727 38.8409 41.7022 38.67C41.6958 38.6263 41.6953 38.582 41.7006 38.5382C41.7213 38.3667 41.8627 38.2254 42.1455 37.9426C42.4154 37.6727 42.5503 37.5378 42.7153 37.5142C42.7576 37.5082 42.8005 37.5076 42.8429 37.5125C43.0086 37.5315 43.1472 37.6627 43.4244 37.925L46.0711 40.4301Z" fill="url(#paint19_linear_2240_1942)"/>
<path fill-rule="evenodd" clip-rule="evenodd" d="M43.47 40.503C43.5495 40.5788 43.6551 40.6211 43.765 40.6211H45.6118C45.6722 40.6211 45.7024 40.6211 45.7314 40.6177C45.8239 40.6069 45.9115 40.5704 45.9845 40.5124C46.0073 40.4943 46.0286 40.4729 46.0711 40.4301L49.9587 36.5203C50.5098 35.9661 50.7854 35.6889 50.7547 35.4467C50.7434 35.3575 50.7083 35.273 50.653 35.2021C50.5028 35.0095 50.112 35.0095 49.3304 35.0095C49.1729 35.0095 49.0941 35.0095 49.0212 35.0323C48.9927 35.0412 48.9651 35.0527 48.9386 35.0665C48.871 35.102 48.8153 35.1577 48.7039 35.269L43.47 40.503Z" fill="url(#paint20_linear_2240_1942)"/>
<defs>
<linearGradient id="paint0_linear_2240_1942" x1="51.8518" y1="20.6938" x2="49.3471" y2="18.282" gradientUnits="userSpaceOnUse">
<stop stop-color="#047CFD"/>
<stop offset="1" stop-color="#31B8F7"/>
</linearGradient>
<linearGradient id="paint1_linear_2240_1942" x1="28.3796" y1="61.0926" x2="28.0554" y2="59.1412" gradientUnits="userSpaceOnUse">
<stop stop-color="#047CFD"/>
<stop offset="1" stop-color="#31B8F7"/>
</linearGradient>
<linearGradient id="paint2_linear_2240_1942" x1="24.6296" y1="60.6938" x2="22.8536" y2="56.4185" gradientUnits="userSpaceOnUse">
<stop stop-color="#047CFD"/>
<stop offset="1" stop-color="#31B8F7"/>
</linearGradient>
<linearGradient id="paint3_linear_2240_1942" x1="21.8518" y1="53.089" x2="17.1197" y2="52.4189" gradientUnits="userSpaceOnUse">
<stop stop-color="#047CFD"/>
<stop offset="1" stop-color="#31B8F7"/>
</linearGradient>
<linearGradient id="paint4_linear_2240_1942" x1="50.8796" y1="16.9438" x2="49.1036" y2="12.6685" gradientUnits="userSpaceOnUse">
<stop stop-color="#047CFD"/>
<stop offset="1" stop-color="#31B8F7"/>
</linearGradient>
<linearGradient id="paint5_linear_2240_1942" x1="42.2685" y1="13.5926" x2="42.1853" y2="11.5908" gradientUnits="userSpaceOnUse">
<stop stop-color="#047CFD"/>
<stop offset="1" stop-color="#31B8F7"/>
</linearGradient>
<linearGradient id="paint6_linear_2240_1942" x1="24.6296" y1="16.9438" x2="22.8536" y2="12.6685" gradientUnits="userSpaceOnUse">
<stop stop-color="#047CFD"/>
<stop offset="1" stop-color="#31B8F7"/>
</linearGradient>
<linearGradient id="paint7_linear_2240_1942" x1="34.1884" y1="55.7102" x2="36.321" y2="52.1666" gradientUnits="userSpaceOnUse">
<stop stop-color="#047CFD"/>
<stop offset="1" stop-color="#31B8F7"/>
</linearGradient>
<linearGradient id="paint8_linear_2240_1942" x1="34.9859" y1="60.7102" x2="36.4704" y2="56.3937" gradientUnits="userSpaceOnUse">
<stop stop-color="#047CFD"/>
<stop offset="1" stop-color="#31B8F7"/>
</linearGradient>
<linearGradient id="paint9_linear_2240_1942" x1="32.1296" y1="68.1938" x2="30.3536" y2="63.9185" gradientUnits="userSpaceOnUse">
<stop stop-color="#047CFD"/>
<stop offset="1" stop-color="#31B8F7"/>
</linearGradient>
<linearGradient id="paint10_linear_2240_1942" x1="29.3518" y1="60.589" x2="24.6197" y2="59.9189" gradientUnits="userSpaceOnUse">
<stop stop-color="#047CFD"/>
<stop offset="1" stop-color="#31B8F7"/>
</linearGradient>
<linearGradient id="paint11_linear_2240_1942" x1="49.7685" y1="68.5926" x2="49.6853" y2="66.5908" gradientUnits="userSpaceOnUse">
<stop stop-color="#047CFD"/>
<stop offset="1" stop-color="#31B8F7"/>
</linearGradient>
<linearGradient id="paint12_linear_2240_1942" x1="58.3796" y1="68.1938" x2="56.6036" y2="63.9185" gradientUnits="userSpaceOnUse">
<stop stop-color="#047CFD"/>
<stop offset="1" stop-color="#31B8F7"/>
</linearGradient>
<linearGradient id="paint13_linear_2240_1942" x1="59.3518" y1="60.589" x2="54.6197" y2="59.9189" gradientUnits="userSpaceOnUse">
<stop stop-color="#047CFD"/>
<stop offset="1" stop-color="#31B8F7"/>
</linearGradient>
<linearGradient id="paint14_linear_2240_1942" x1="58.3796" y1="24.4438" x2="56.6036" y2="20.1685" gradientUnits="userSpaceOnUse">
<stop stop-color="#047CFD"/>
<stop offset="1" stop-color="#31B8F7"/>
</linearGradient>
<linearGradient id="paint15_linear_2240_1942" x1="49.7685" y1="21.0926" x2="49.6853" y2="19.0908" gradientUnits="userSpaceOnUse">
<stop stop-color="#047CFD"/>
<stop offset="1" stop-color="#31B8F7"/>
</linearGradient>
<linearGradient id="paint16_linear_2240_1942" x1="32.1296" y1="24.4438" x2="30.3536" y2="20.1685" gradientUnits="userSpaceOnUse">
<stop stop-color="#047CFD"/>
<stop offset="1" stop-color="#31B8F7"/>
</linearGradient>
<linearGradient id="paint17_linear_2240_1942" x1="37.3112" y1="38.0151" x2="42.4895" y2="34.1896" gradientUnits="userSpaceOnUse">
<stop stop-color="#047CFD"/>
<stop offset="1" stop-color="#31B8F7"/>
</linearGradient>
<linearGradient id="paint18_linear_2240_1942" x1="37.3112" y1="38.0151" x2="42.4895" y2="34.1896" gradientUnits="userSpaceOnUse">
<stop stop-color="#047CFD"/>
<stop offset="1" stop-color="#31B8F7"/>
</linearGradient>
<linearGradient id="paint19_linear_2240_1942" x1="50.3997" y1="36.4644" x2="45.2214" y2="40.2899" gradientUnits="userSpaceOnUse">
<stop stop-color="#047CFD"/>
<stop offset="1" stop-color="#31B8F7"/>
</linearGradient>
<linearGradient id="paint20_linear_2240_1942" x1="50.3997" y1="36.4644" x2="45.2214" y2="40.2899" gradientUnits="userSpaceOnUse">
<stop stop-color="#047CFD"/>
<stop offset="1" stop-color="#31B8F7"/>
</linearGradient>
</defs>
</svg>
