<svg width="23" height="24" viewBox="0 0 23 24" fill="none" xmlns="http://www.w3.org/2000/svg">
<path fill-rule="evenodd" clip-rule="evenodd" d="M11.3196 24C7.82598 23.9973 5.0118 23.1508 3.0455 21.6304C1.05562 20.0917 0 17.9081 0 15.4373C0 13.0566 1.05331 11.3399 2.24512 10.1795C3.17913 9.27015 4.20983 8.68774 4.92751 8.35273C4.76521 7.8498 4.56273 7.19138 4.38157 6.51134C4.13917 5.60134 3.90137 4.53367 3.90137 3.75128C3.90137 2.82522 4.10132 1.8952 4.64045 1.17253C5.21006 0.40902 6.06759 0 7.09921 0C7.90546 0 8.58996 0.301987 9.12585 0.822945C9.6381 1.32091 9.97902 1.98221 10.2144 2.67159C10.6281 3.88294 10.7891 5.40481 10.8343 6.92356H11.8224C11.8677 5.40481 12.0286 3.88294 12.4423 2.67159C12.6777 1.98221 13.0186 1.32091 13.5309 0.822945C14.0668 0.301987 14.7512 0 15.5574 0C16.5892 0 17.4466 0.40902 18.0163 1.17253C18.5554 1.8952 18.7554 2.82522 18.7554 3.75128C18.7554 4.53367 18.5175 5.60134 18.2751 6.51134C18.0939 7.19138 17.8915 7.8498 17.7292 8.35273C18.4469 8.68774 19.4776 9.27015 20.4116 10.1795C21.6034 11.3399 22.6566 13.0566 22.6566 15.4373C22.6566 17.9081 21.6011 20.0917 19.6112 21.6304C17.6449 23.1508 14.8307 23.9973 11.3371 24H11.3196Z" fill="#633001"/>
<path d="M7.09909 0.880859C5.58812 0.880859 4.89258 2.03071 4.89258 3.62093C4.89258 4.88492 5.70073 7.41636 6.03231 8.4018C6.10689 8.62345 5.98971 8.86629 5.77598 8.95224C4.56498 9.43932 0.991211 11.2227 0.991211 15.307C0.991211 19.6093 4.62298 22.8533 11.3202 22.8585C11.3229 22.8585 11.3256 22.8584 11.3282 22.8584C11.3309 22.8584 11.3336 22.8585 11.3362 22.8585C18.0334 22.8533 21.6652 19.6093 21.6652 15.307C21.6652 11.2227 18.0915 9.43932 16.8805 8.95224C16.6668 8.86629 16.5496 8.62345 16.6242 8.4018C16.9558 7.41636 17.7639 4.88492 17.7639 3.62093C17.7639 2.03071 17.0684 0.880859 15.5574 0.880859C13.3824 0.880859 12.8402 4.02361 12.8015 7.39654C12.799 7.62172 12.6205 7.80442 12.3998 7.80442H10.2567C10.036 7.80442 9.85751 7.62172 9.85493 7.39654C9.81626 4.02361 9.2741 0.880859 7.09909 0.880859Z" fill="#D1884F"/>
<path d="M11.3362 21.4796C6.41541 21.4796 0.99972 18.7926 0.991235 15.3145C0.991223 15.3198 0.991211 15.3252 0.991211 15.3306C0.991211 19.6365 4.62876 22.8822 11.3362 22.8822C18.0437 22.8822 21.6812 19.6365 21.6812 15.3306C21.6812 15.3252 21.6812 15.3198 21.6812 15.3145C21.6727 18.7926 16.257 21.4796 11.3362 21.4796Z" fill="#FEDC90"/>
<path d="M8.60223 14.2469C8.60223 15.4212 8.05818 16.0328 7.38706 16.0328C6.71593 16.0328 6.17188 15.4212 6.17188 14.2469C6.17188 13.0725 6.71593 12.4609 7.38706 12.4609C8.05818 12.4609 8.60223 13.0725 8.60223 14.2469Z" fill="#633001"/>
<path d="M16.5007 14.2469C16.5007 15.4212 15.9566 16.0328 15.2855 16.0328C14.6144 16.0328 14.0703 15.4212 14.0703 14.2469C14.0703 13.0725 14.6144 12.4609 15.2855 12.4609C15.9566 12.4609 16.5007 13.0725 16.5007 14.2469Z" fill="#633001"/>
</svg>
