<svg width="80" height="81" viewBox="0 0 80 81" fill="none" xmlns="http://www.w3.org/2000/svg">
<path d="M35.1592 67.3812C32.8679 67.3812 30.5592 67.2775 28.2792 67.07C25.9754 66.86 23.1079 66.5987 20.4367 65.8262L20.1779 65.7537C18.9342 65.4125 16.3479 64.7 16.2504 62.6437C16.2179 61.9537 16.7504 61.3687 17.4404 61.3362C18.1079 61.3225 18.6817 61.8062 18.7429 62.4675C18.8767 62.6462 19.3567 62.9362 20.8392 63.3437L21.1292 63.4237C23.3917 64.0775 25.7092 64.325 28.5042 64.5787C33.7017 65.0525 39.0442 64.9662 43.9604 64.33L44.9717 64.2C45.6467 64.1037 46.2817 64.5962 46.3704 65.28C46.4592 65.965 45.9754 66.5912 45.2904 66.6787L44.2804 66.8087C41.3504 67.1912 38.2704 67.3812 35.1592 67.3812Z" fill="url(#paint0_linear_2240_17755)"/>
<path d="M35.6063 59.8352C35.6038 59.8352 35.6013 59.8352 35.5988 59.8352C32.1163 59.8152 27.9888 59.7052 23.7738 59.0389C22.1488 58.7814 20.2713 58.4427 18.5601 57.6764C17.8338 57.3527 16.3226 56.6777 16.2513 55.1452C16.2201 54.4564 16.7526 53.8702 17.4426 53.8389C18.0713 53.8127 18.6588 54.2877 18.7401 54.9277C18.9026 55.0927 19.4076 55.3189 19.5801 55.3964C21.0138 56.0377 22.6988 56.3389 24.1651 56.5714C28.2151 57.2127 32.2251 57.3189 35.6138 57.3377C36.3038 57.3414 36.8601 57.9039 36.8563 58.5952C36.8526 59.2802 36.2938 59.8352 35.6063 59.8352Z" fill="url(#paint1_linear_2240_17755)"/>
<path d="M32.6702 52.3062C32.6552 52.3062 32.6402 52.3062 32.6252 52.3062C29.2152 52.1849 25.569 51.9674 22.0102 51.2112L21.659 51.1412C19.814 50.7787 16.3802 50.1037 16.2527 47.6524C16.2165 46.9637 16.7465 46.3749 17.4365 46.3399C18.109 46.3012 18.6965 46.8174 18.7477 47.4912C18.8615 47.6837 19.4265 48.1549 22.1415 48.6874L22.5315 48.7662C25.9027 49.4824 29.419 49.6899 32.7152 49.8074C33.4052 49.8324 33.944 50.4112 33.9202 51.1012C33.894 51.7749 33.3402 52.3062 32.6702 52.3062Z" fill="url(#paint2_linear_2240_17755)"/>
<path d="M29.4876 44.8346C26.5201 44.8346 23.3351 44.7046 20.1926 44.2459L20.0601 44.2259C18.0526 43.9334 15.9763 43.6296 14.0001 42.8571C13.1013 42.5071 11.3288 41.8159 11.2513 40.1434C11.2201 39.4534 11.7526 38.8684 12.4426 38.8371C13.1113 38.8259 13.6663 39.2921 13.7426 39.9371C13.9363 40.1484 14.6276 40.4184 14.8626 40.5096C16.6213 41.1971 18.5538 41.4784 20.4226 41.7521L20.5563 41.7709C24.9063 42.4071 29.4026 42.3809 33.2288 42.2746C33.9363 42.2371 34.4938 42.7984 34.5126 43.4896C34.5326 44.1796 33.9888 44.7546 33.2976 44.7734C32.0863 44.8084 30.8088 44.8346 29.4876 44.8346Z" fill="url(#paint3_linear_2240_17755)"/>
<path d="M34.8126 37.3189C31.6976 37.3189 28.3401 37.2064 25.0601 36.7264C23.0413 36.4314 20.9713 36.1289 19.0001 35.3589C18.1013 35.0089 16.3288 34.3176 16.2513 32.6451C16.2201 31.9551 16.7526 31.3701 17.4426 31.3389C18.1126 31.3376 18.6663 31.7939 18.7426 32.4389C18.9363 32.6501 19.6276 32.9201 19.8626 33.0114C21.6163 33.6964 23.5426 33.9776 25.4063 34.2514C29.6238 34.8676 34.0288 34.8526 37.8276 34.7914H37.8488C38.5288 34.7914 39.0876 35.3376 39.0988 36.0214C39.1101 36.7114 38.5588 37.2801 37.8688 37.2914C36.8851 37.3064 35.8613 37.3189 34.8126 37.3189Z" fill="url(#paint4_linear_2240_17755)"/>
<path d="M52.5 32.5597C51.81 32.5597 51.25 31.9997 51.25 31.3097V25.0859C51.25 24.3959 51.81 23.8359 52.5 23.8359C53.19 23.8359 53.75 24.3959 53.75 25.0859V31.3097C53.75 31.9997 53.19 32.5597 52.5 32.5597Z" fill="url(#paint5_linear_2240_17755)"/>
<path d="M17.5 63.8359C16.81 63.8359 16.25 63.2759 16.25 62.5859V47.5859C16.25 46.8959 16.81 46.3359 17.5 46.3359C18.19 46.3359 18.75 46.8959 18.75 47.5859V62.5859C18.75 63.2772 18.19 63.8359 17.5 63.8359Z" fill="url(#paint6_linear_2240_17755)"/>
<path d="M34.9237 22.326C34.9225 22.326 34.9225 22.326 34.9237 22.326C33.5362 22.326 32.115 22.2922 30.7012 22.2272C27.635 22.0847 25.13 21.8122 22.8162 21.3697L22.2012 21.2585C20.4575 20.951 18.0712 20.531 16.8262 19.0172C16.07 18.0972 16.2462 17.2422 16.4187 16.8147C17.29 14.6547 22.4437 13.746 25.4387 13.396C31.0975 12.7347 36.605 12.636 41.7212 13.1022C44.0225 13.311 46.8862 13.571 49.5637 14.346L49.82 14.4172C51.065 14.7597 53.655 15.4722 53.7487 17.5297C53.6712 19.3835 51.7662 20.081 50.85 20.4147C48.6237 21.2335 46.325 21.5697 44.5612 21.776C41.4325 22.141 38.19 22.326 34.9237 22.326ZM18.9325 17.5985C19.7387 18.2872 21.46 18.5897 22.6337 18.796L23.285 18.9147C25.4787 19.3335 27.8712 19.5922 30.8162 19.7297C32.1925 19.7935 33.5737 19.826 34.9225 19.826C38.0925 19.826 41.2375 19.646 44.2712 19.2935C45.8975 19.1035 48.0075 18.796 49.905 18.0985C50.2025 17.9897 50.8225 17.7622 51.1287 17.551C50.9062 17.4122 50.3625 17.1585 49.1562 16.826L48.8687 16.746C46.4212 16.0385 43.6887 15.7897 41.4937 15.591C36.5487 15.141 31.2137 15.2372 25.7275 15.8772C22.7787 16.2247 19.8275 16.9847 18.9325 17.5985Z" fill="url(#paint7_linear_2240_17755)"/>
<path d="M17.5 48.8361C16.81 48.8361 16.25 48.2761 16.25 47.5861V42.5361C16.25 41.8461 16.81 41.2861 17.5 41.2861C18.19 41.2861 18.75 41.8461 18.75 42.5361V47.5861C18.75 48.2774 18.19 48.8361 17.5 48.8361Z" fill="url(#paint8_linear_2240_17755)"/>
<path d="M29.701 37.325C28.7198 37.325 27.7435 37.3125 26.7685 37.2763C23.571 37.1575 21.0035 36.9175 18.6873 36.5225L18.041 36.4163C16.1835 36.1163 13.871 35.7413 12.2723 34.435C11.1698 33.5325 11.1998 32.5925 11.3148 32.1138C11.6535 30.7075 13.456 29.7263 17.1598 28.9313C17.8373 28.785 18.5373 29.2075 18.6823 29.8813C18.8285 30.5563 18.4385 31.2125 17.7635 31.3588L17.6848 31.375C15.3898 31.8688 14.3923 32.3325 13.976 32.595C15.0748 33.4063 16.9348 33.7063 18.4398 33.95L19.1073 34.06C21.3123 34.4363 23.776 34.6638 26.861 34.7788C28.7023 34.8463 30.5698 34.83 32.481 34.8013C33.1848 34.76 33.7385 35.3425 33.7485 36.0338C33.7585 36.7238 33.206 37.2913 32.516 37.3013C31.5698 37.315 30.6323 37.325 29.701 37.325Z" fill="url(#paint9_linear_2240_17755)"/>
<path d="M12.5 41.3359C11.81 41.3359 11.25 40.7759 11.25 40.0859V32.5859C11.25 31.8959 11.81 31.3359 12.5 31.3359C13.19 31.3359 13.75 31.8959 13.75 32.5859V40.0859C13.75 40.7772 13.19 41.3359 12.5 41.3359Z" fill="url(#paint10_linear_2240_17755)"/>
<path d="M17.5 33.8359C16.81 33.8359 16.25 33.2759 16.25 32.5859V25.0859C16.25 24.3959 16.81 23.8359 17.5 23.8359C18.19 23.8359 18.75 24.3959 18.75 25.0859V32.5859C18.75 33.2772 18.19 33.8359 17.5 33.8359Z" fill="url(#paint11_linear_2240_17755)"/>
<path d="M52.5 26.3359C51.81 26.3359 51.25 25.7759 51.25 25.0859V17.5859C51.25 16.8959 51.81 16.3359 52.5 16.3359C53.19 16.3359 53.75 16.8959 53.75 17.5859V25.0859C53.75 25.7772 53.19 26.3359 52.5 26.3359Z" fill="url(#paint12_linear_2240_17755)"/>
<path d="M17.5 26.3359C16.81 26.3359 16.25 25.7759 16.25 25.0859V17.5859C16.25 16.8959 16.81 16.3359 17.5 16.3359C18.19 16.3359 18.75 16.8959 18.75 17.5859V25.0859C18.75 25.7772 18.19 26.3359 17.5 26.3359Z" fill="url(#paint13_linear_2240_17755)"/>
<path d="M34.8029 29.8601C32.5754 29.8601 30.3979 29.7638 28.2792 29.5713C25.9754 29.3613 23.1079 29.1001 20.4367 28.3276L20.1779 28.2551C18.9342 27.9138 16.3479 27.2013 16.2504 25.1451C16.2179 24.4551 16.7504 23.8701 17.4404 23.8376C18.1079 23.8151 18.6817 24.3076 18.7429 24.9688C18.8767 25.1463 19.3567 25.4363 20.8392 25.8438L21.1292 25.9238C23.3917 26.5776 25.7092 26.8251 28.5042 27.0788C33.4592 27.5301 38.7654 27.4326 44.2704 26.7926C45.8967 26.6026 48.0067 26.2951 49.9042 25.5976C50.2692 25.4638 51.1204 25.1526 51.2829 24.9101C51.3129 24.2201 51.8892 23.7313 52.5704 23.7763C53.2604 23.8063 53.7779 24.4501 53.7479 25.1401C53.6704 26.8826 51.7654 27.5788 50.8492 27.9138C48.6229 28.7326 46.3242 29.0688 44.5604 29.2751C41.2304 29.6663 37.9679 29.8601 34.8029 29.8601Z" fill="url(#paint14_linear_2240_17755)"/>
<path d="M50.0964 67.363C44.1851 67.363 38.5551 64.583 35.0351 59.9268C31.4251 55.1518 30.3851 49.0443 32.1839 43.1743C33.9839 37.298 38.2689 32.8168 43.9401 30.8805C45.8539 30.2268 47.8414 29.8955 49.8464 29.8955C60.0926 29.8968 68.7501 38.4755 68.7501 48.6293C68.7501 56.5293 63.5326 63.828 56.0614 66.378C54.1464 67.0318 52.1389 67.363 50.0964 67.363ZM49.8451 32.3968C48.1151 32.3968 46.4001 32.683 44.7476 33.2468C39.8439 34.9205 36.1364 38.8068 34.5739 43.9068C33.0126 49.0018 33.9076 54.2918 37.0289 58.4193C40.0789 62.4543 44.9639 64.863 50.0964 64.863C51.8639 64.863 53.5989 64.5768 55.2526 64.0118C61.7276 61.8018 66.2501 55.4768 66.2501 48.6293C66.2501 39.8305 58.7376 32.3968 49.8451 32.3968Z" fill="url(#paint15_linear_2240_17755)"/>
<path d="M50.0223 62.3499C50.021 62.3499 50.021 62.3499 50.0223 62.3499C46.6448 62.3499 43.416 61.1474 40.931 58.9649C36.2035 54.8124 34.9023 47.7687 37.836 42.2149C40.1885 37.7637 44.991 34.8887 50.071 34.8887C51.181 34.8887 52.286 35.0249 53.3573 35.2937C59.3785 36.8049 63.7498 42.4137 63.7498 48.6299C63.7498 53.0799 61.5798 57.2762 57.946 59.8524C55.6423 61.4874 52.9023 62.3499 50.0223 62.3499ZM50.071 37.3887C45.906 37.3887 41.971 39.7412 40.046 43.3837C37.646 47.9262 38.711 53.6899 42.5785 57.0862C44.6085 58.8687 47.251 59.8499 50.0198 59.8499H50.021C52.3798 59.8499 54.6198 59.1462 56.4998 57.8124C59.4735 55.7037 61.2498 52.2712 61.2498 48.6299C61.2498 43.5437 57.6748 38.9537 52.7485 37.7174C51.876 37.4999 50.9748 37.3887 50.071 37.3887Z" fill="url(#paint16_linear_2240_17755)"/>
<path fill-rule="evenodd" clip-rule="evenodd" d="M47.8195 45.734C47.8621 45.6912 47.8834 45.6698 47.9062 45.6516C47.9791 45.5936 48.0667 45.5572 48.1593 45.5464C48.1882 45.543 48.2184 45.543 48.2788 45.543H50.1256C50.2355 45.543 50.3411 45.5853 50.4206 45.6611L51.7296 46.9093C52.019 47.1852 52.1637 47.3232 52.1884 47.4941C52.1948 47.5378 52.1953 47.5821 52.19 47.6259C52.1693 47.7973 52.0279 47.9387 51.7452 48.2215C51.4753 48.4913 51.3403 48.6263 51.1753 48.6498C51.133 48.6559 51.0901 48.6564 51.0477 48.6516C50.8821 48.6326 50.7435 48.5014 50.4663 48.239L47.8195 45.734Z" fill="url(#paint17_linear_2240_17755)"/>
<path fill-rule="evenodd" clip-rule="evenodd" d="M50.4206 45.6611C50.3411 45.5853 50.2355 45.543 50.1256 45.543H48.2788C48.2184 45.543 48.1882 45.543 48.1593 45.5464C48.0667 45.5572 47.9791 45.5936 47.9062 45.6516C47.8834 45.6698 47.8621 45.6912 47.8195 45.734L43.9319 49.6437C43.3808 50.198 43.1052 50.4751 43.1359 50.7173C43.1472 50.8066 43.1824 50.8911 43.2377 50.962C43.3878 51.1545 43.7786 51.1545 44.5602 51.1545C44.7177 51.1545 44.7965 51.1545 44.8694 51.1317C44.8979 51.1228 44.9255 51.1114 44.952 51.0975C45.0197 51.0621 45.0754 51.0064 45.1867 50.895L50.4206 45.6611Z" fill="url(#paint18_linear_2240_17755)"/>
<path fill-rule="evenodd" clip-rule="evenodd" d="M52.2508 52.1146C52.2083 52.1575 52.187 52.1789 52.1641 52.197C52.0912 52.255 52.0036 52.2915 51.911 52.3023C51.8821 52.3057 51.8519 52.3057 51.7915 52.3057H49.9447C49.8348 52.3057 49.7292 52.2634 49.6497 52.1876L48.3407 50.9394C48.0514 50.6634 47.9067 50.5254 47.8819 50.3545C47.8755 50.3109 47.875 50.2666 47.8803 50.2227C47.901 50.0513 48.0424 49.9099 48.3252 49.6272C48.595 49.3573 48.73 49.2223 48.895 49.1988C48.9373 49.1928 48.9802 49.1922 49.0226 49.1971C49.1883 49.216 49.3269 49.3472 49.6041 49.6096L52.2508 52.1146Z" fill="url(#paint19_linear_2240_17755)"/>
<path fill-rule="evenodd" clip-rule="evenodd" d="M49.6497 52.1876C49.7292 52.2634 49.8348 52.3057 49.9447 52.3057H51.7915C51.8519 52.3057 51.8821 52.3057 51.911 52.3023C52.0036 52.2915 52.0912 52.255 52.1641 52.197C52.187 52.1789 52.2083 52.1575 52.2508 52.1146L56.1384 48.2049C56.6895 47.6506 56.9651 47.3735 56.9344 47.1313C56.9231 47.0421 56.8879 46.9576 56.8326 46.8866C56.6825 46.6941 56.2917 46.6941 55.5101 46.6941C55.3526 46.6941 55.2738 46.6941 55.2009 46.7169C55.1724 46.7258 55.1448 46.7373 55.1183 46.7511C55.0507 46.7865 54.995 46.8422 54.8836 46.9536L49.6497 52.1876Z" fill="url(#paint20_linear_2240_17755)"/>
<defs>
<linearGradient id="paint0_linear_2240_17755" x1="19.4532" y1="65.8139" x2="24.0243" y2="56.3492" gradientUnits="userSpaceOnUse">
<stop stop-color="#047CFD"/>
<stop offset="1" stop-color="#31B8F7"/>
</linearGradient>
<linearGradient id="paint1_linear_2240_17755" x1="18.4412" y1="58.2803" x2="23.883" y2="50.5132" gradientUnits="userSpaceOnUse">
<stop stop-color="#047CFD"/>
<stop offset="1" stop-color="#31B8F7"/>
</linearGradient>
<linearGradient id="paint2_linear_2240_17755" x1="18.13" y1="50.7588" x2="23.7707" y2="43.8215" gradientUnits="userSpaceOnUse">
<stop stop-color="#047CFD"/>
<stop offset="1" stop-color="#31B8F7"/>
</linearGradient>
<linearGradient id="paint3_linear_2240_17755" x1="13.7238" y1="43.2796" x2="18.9125" y2="34.9195" gradientUnits="userSpaceOnUse">
<stop stop-color="#047CFD"/>
<stop offset="1" stop-color="#31B8F7"/>
</linearGradient>
<linearGradient id="paint4_linear_2240_17755" x1="18.6797" y1="35.7685" x2="23.8872" y2="27.503" gradientUnits="userSpaceOnUse">
<stop stop-color="#047CFD"/>
<stop offset="1" stop-color="#31B8F7"/>
</linearGradient>
<linearGradient id="paint5_linear_2240_17755" x1="51.5158" y1="30.298" x2="53.493" y2="30.0626" gradientUnits="userSpaceOnUse">
<stop stop-color="#047CFD"/>
<stop offset="1" stop-color="#31B8F7"/>
</linearGradient>
<linearGradient id="paint6_linear_2240_17755" x1="16.5158" y1="59.2989" x2="18.514" y2="59.1803" gradientUnits="userSpaceOnUse">
<stop stop-color="#047CFD"/>
<stop offset="1" stop-color="#31B8F7"/>
</linearGradient>
<linearGradient id="paint7_linear_2240_17755" x1="20.2541" y1="19.8598" x2="28.4255" y2="6.48522" gradientUnits="userSpaceOnUse">
<stop stop-color="#047CFD"/>
<stop offset="1" stop-color="#31B8F7"/>
</linearGradient>
<linearGradient id="paint8_linear_2240_17755" x1="16.5158" y1="46.8787" x2="18.4838" y2="46.608" gradientUnits="userSpaceOnUse">
<stop stop-color="#047CFD"/>
<stop offset="1" stop-color="#31B8F7"/>
</linearGradient>
<linearGradient id="paint9_linear_2240_17755" x1="13.6521" y1="35.1413" x2="21.74" y2="26.1709" gradientUnits="userSpaceOnUse">
<stop stop-color="#047CFD"/>
<stop offset="1" stop-color="#31B8F7"/>
</linearGradient>
<linearGradient id="paint10_linear_2240_17755" x1="11.5158" y1="38.7433" x2="13.4997" y2="38.5373" gradientUnits="userSpaceOnUse">
<stop stop-color="#047CFD"/>
<stop offset="1" stop-color="#31B8F7"/>
</linearGradient>
<linearGradient id="paint11_linear_2240_17755" x1="16.5158" y1="31.2433" x2="18.4997" y2="31.0373" gradientUnits="userSpaceOnUse">
<stop stop-color="#047CFD"/>
<stop offset="1" stop-color="#31B8F7"/>
</linearGradient>
<linearGradient id="paint12_linear_2240_17755" x1="51.5158" y1="23.7433" x2="53.4997" y2="23.5373" gradientUnits="userSpaceOnUse">
<stop stop-color="#047CFD"/>
<stop offset="1" stop-color="#31B8F7"/>
</linearGradient>
<linearGradient id="paint13_linear_2240_17755" x1="16.5158" y1="23.7433" x2="18.4997" y2="23.5373" gradientUnits="userSpaceOnUse">
<stop stop-color="#047CFD"/>
<stop offset="1" stop-color="#31B8F7"/>
</linearGradient>
<linearGradient id="paint14_linear_2240_17755" x1="20.2367" y1="28.282" x2="24.2204" y2="18.0863" gradientUnits="userSpaceOnUse">
<stop stop-color="#047CFD"/>
<stop offset="1" stop-color="#31B8F7"/>
</linearGradient>
<linearGradient id="paint15_linear_2240_17755" x1="35.3005" y1="57.6491" x2="60.9116" y2="47.0208" gradientUnits="userSpaceOnUse">
<stop stop-color="#047CFD"/>
<stop offset="1" stop-color="#31B8F7"/>
</linearGradient>
<linearGradient id="paint16_linear_2240_17755" x1="39.1978" y1="55.2303" x2="57.9883" y2="47.4211" gradientUnits="userSpaceOnUse">
<stop stop-color="#047CFD"/>
<stop offset="1" stop-color="#31B8F7"/>
</linearGradient>
<linearGradient id="paint17_linear_2240_17755" x1="43.4909" y1="49.6997" x2="48.6692" y2="45.8742" gradientUnits="userSpaceOnUse">
<stop stop-color="#047CFD"/>
<stop offset="1" stop-color="#31B8F7"/>
</linearGradient>
<linearGradient id="paint18_linear_2240_17755" x1="43.4909" y1="49.6997" x2="48.6692" y2="45.8742" gradientUnits="userSpaceOnUse">
<stop stop-color="#047CFD"/>
<stop offset="1" stop-color="#31B8F7"/>
</linearGradient>
<linearGradient id="paint19_linear_2240_17755" x1="56.5794" y1="48.149" x2="51.4011" y2="51.9745" gradientUnits="userSpaceOnUse">
<stop stop-color="#047CFD"/>
<stop offset="1" stop-color="#31B8F7"/>
</linearGradient>
<linearGradient id="paint20_linear_2240_17755" x1="56.5794" y1="48.149" x2="51.4011" y2="51.9745" gradientUnits="userSpaceOnUse">
<stop stop-color="#047CFD"/>
<stop offset="1" stop-color="#31B8F7"/>
</linearGradient>
</defs>
</svg>
