<svg width="80" height="81" viewBox="0 0 80 81" fill="none" xmlns="http://www.w3.org/2000/svg">
<path d="M42.5 65.1084H37.5C36.8088 65.1084 36.25 64.5484 36.25 63.8584C36.25 63.1684 36.8088 62.6084 37.5 62.6084H42.5C43.1912 62.6084 43.75 63.1684 43.75 63.8584C43.75 64.5484 43.1912 65.1084 42.5 65.1084Z" fill="url(#paint0_linear_2240_9429)"/>
<path d="M56.25 61.3584H23.75C23.0588 61.3584 22.5 60.7984 22.5 60.1084C22.5 59.4184 23.0588 58.8584 23.75 58.8584H56.25C56.9412 58.8584 57.5 59.4184 57.5 60.1084C57.5 60.7984 56.9412 61.3584 56.25 61.3584Z" fill="url(#paint1_linear_2240_9429)"/>
<path d="M51.25 68.8584C50.5588 68.8584 50 68.2984 50 67.6084C50 66.9184 50.5588 66.3584 51.25 66.3584C53.3175 66.3584 55 64.6759 55 62.6084C55 61.9184 55.5588 61.3584 56.25 61.3584C56.9412 61.3584 57.5 61.9184 57.5 62.6084C57.5 66.0546 54.6962 68.8584 51.25 68.8584Z" fill="url(#paint2_linear_2240_9429)"/>
<path d="M56.25 63.8584C55.5588 63.8584 55 63.2984 55 62.6084V17.6084C55 16.9184 55.5588 16.3584 56.25 16.3584C56.9412 16.3584 57.5 16.9184 57.5 17.6084V62.6084C57.5 63.2984 56.9412 63.8584 56.25 63.8584Z" fill="url(#paint3_linear_2240_9429)"/>
<path d="M51.25 68.8584H28.75C28.0588 68.8584 27.5 68.2984 27.5 67.6084C27.5 66.9184 28.0588 66.3584 28.75 66.3584H51.25C51.9412 66.3584 52.5 66.9184 52.5 67.6084C52.5 68.2984 51.9412 68.8584 51.25 68.8584Z" fill="url(#paint4_linear_2240_9429)"/>
<path d="M28.75 68.8584C25.3038 68.8584 22.5 66.0546 22.5 62.6084C22.5 61.9184 23.0588 61.3584 23.75 61.3584C24.4412 61.3584 25 61.9184 25 62.6084C25 64.6759 26.6825 66.3584 28.75 66.3584C29.4412 66.3584 30 66.9184 30 67.6084C30 68.2984 29.4412 68.8584 28.75 68.8584Z" fill="url(#paint5_linear_2240_9429)"/>
<path d="M23.75 63.8584C23.0588 63.8584 22.5 63.2984 22.5 62.6084V17.6084C22.5 16.9184 23.0588 16.3584 23.75 16.3584C24.4412 16.3584 25 16.9184 25 17.6084V62.6084C25 63.2984 24.4412 63.8584 23.75 63.8584Z" fill="url(#paint6_linear_2240_9429)"/>
<path d="M23.75 18.8584C23.0588 18.8584 22.5 18.2984 22.5 17.6084C22.5 14.1621 25.3038 11.3584 28.75 11.3584C29.4412 11.3584 30 11.9184 30 12.6084C30 13.2984 29.4412 13.8584 28.75 13.8584C26.6825 13.8584 25 15.5409 25 17.6084C25 18.2984 24.4412 18.8584 23.75 18.8584Z" fill="url(#paint7_linear_2240_9429)"/>
<path d="M51.25 13.8584H28.75C28.0588 13.8584 27.5 13.2984 27.5 12.6084C27.5 11.9184 28.0588 11.3584 28.75 11.3584H51.25C51.9412 11.3584 52.5 11.9184 52.5 12.6084C52.5 13.2984 51.9412 13.8584 51.25 13.8584Z" fill="url(#paint8_linear_2240_9429)"/>
<path d="M56.25 18.8584C55.5588 18.8584 55 18.2984 55 17.6084C55 15.5409 53.3175 13.8584 51.25 13.8584C50.5588 13.8584 50 13.2984 50 12.6084C50 11.9184 50.5588 11.3584 51.25 11.3584C54.6962 11.3584 57.5 14.1621 57.5 17.6084C57.5 18.2984 56.9412 18.8584 56.25 18.8584Z" fill="url(#paint9_linear_2240_9429)"/>
<path fill-rule="evenodd" clip-rule="evenodd" d="M37.7843 36.9176C37.8269 36.8748 37.8482 36.8533 37.871 36.8352C37.9439 36.7772 38.0316 36.7408 38.1241 36.7299C38.1531 36.7266 38.1833 36.7266 38.2436 36.7266H40.0905C40.2003 36.7266 40.306 36.7689 40.3855 36.8447L41.6944 38.0929C41.9838 38.3688 42.1285 38.5068 42.1533 38.6777C42.1596 38.7214 42.1602 38.7657 42.1549 38.8095C42.1341 38.9809 41.9928 39.1223 41.71 39.4051C41.4401 39.6749 41.3052 39.8099 41.1401 39.8334C41.0978 39.8395 41.055 39.84 41.0125 39.8352C40.8469 39.8162 40.7083 39.685 40.4311 39.4226L37.7843 36.9176Z" fill="url(#paint10_linear_2240_9429)"/>
<path fill-rule="evenodd" clip-rule="evenodd" d="M40.3855 36.8447C40.306 36.7689 40.2003 36.7266 40.0905 36.7266H38.2436C38.1833 36.7266 38.1531 36.7266 38.1241 36.7299C38.0316 36.7408 37.9439 36.7772 37.871 36.8352C37.8482 36.8533 37.8269 36.8748 37.7843 36.9176L33.8967 40.8273C33.3456 41.3816 33.0701 41.6587 33.1008 41.9009C33.1121 41.9902 33.1472 42.0747 33.2025 42.1456C33.3526 42.3381 33.7434 42.3381 34.5251 42.3381C34.6826 42.3381 34.7613 42.3381 34.8343 42.3153C34.8627 42.3064 34.8904 42.295 34.9168 42.2811C34.9845 42.2457 35.0402 42.19 35.1516 42.0786L40.3855 36.8447Z" fill="url(#paint11_linear_2240_9429)"/>
<path fill-rule="evenodd" clip-rule="evenodd" d="M42.2157 43.2982C42.1731 43.3411 42.1518 43.3625 42.129 43.3806C42.0561 43.4386 41.9684 43.475 41.8759 43.4859C41.8469 43.4893 41.8167 43.4893 41.7564 43.4893H39.9095C39.7997 43.4893 39.694 43.447 39.6145 43.3712L38.3056 42.123C38.0162 41.847 37.8715 41.709 37.8467 41.5381C37.8404 41.4945 37.8398 41.4501 37.8451 41.4063C37.8659 41.2349 38.0072 41.0935 38.29 40.8108C38.5599 40.5409 38.6948 40.4059 38.8599 40.3824C38.9022 40.3764 38.945 40.3758 38.9875 40.3806C39.1531 40.3996 39.2917 40.5308 39.5689 40.7932L42.2157 43.2982Z" fill="url(#paint12_linear_2240_9429)"/>
<path fill-rule="evenodd" clip-rule="evenodd" d="M39.6145 43.3712C39.694 43.447 39.7997 43.4893 39.9095 43.4893H41.7564C41.8167 43.4893 41.8469 43.4893 41.8759 43.4859C41.9684 43.475 42.0561 43.4386 42.129 43.3806C42.1518 43.3625 42.1731 43.3411 42.2157 43.2982L46.1033 39.3885C46.6544 38.8342 46.9299 38.5571 46.8992 38.3149C46.8879 38.2257 46.8528 38.1411 46.7975 38.0702C46.6474 37.8777 46.2566 37.8777 45.4749 37.8777C45.3174 37.8777 45.2387 37.8777 45.1657 37.9005C45.1373 37.9094 45.1096 37.9209 45.0832 37.9347C45.0155 37.9701 44.9598 38.0258 44.8484 38.1372L39.6145 43.3712Z" fill="url(#paint13_linear_2240_9429)"/>
<defs>
<linearGradient id="paint0_linear_2240_9429" x1="37.0475" y1="64.4602" x2="39.4038" y2="61.5239" gradientUnits="userSpaceOnUse">
<stop stop-color="#047CFD"/>
<stop offset="1" stop-color="#31B8F7"/>
</linearGradient>
<linearGradient id="paint1_linear_2240_9429" x1="26.2218" y1="60.7102" x2="27.028" y2="56.0218" gradientUnits="userSpaceOnUse">
<stop stop-color="#047CFD"/>
<stop offset="1" stop-color="#31B8F7"/>
</linearGradient>
<linearGradient id="paint2_linear_2240_9429" x1="50.7975" y1="66.9139" x2="55.9278" y2="64.7828" gradientUnits="userSpaceOnUse">
<stop stop-color="#047CFD"/>
<stop offset="1" stop-color="#31B8F7"/>
</linearGradient>
<linearGradient id="paint3_linear_2240_9429" x1="55.2658" y1="51.5435" x2="57.2701" y2="51.4997" gradientUnits="userSpaceOnUse">
<stop stop-color="#047CFD"/>
<stop offset="1" stop-color="#31B8F7"/>
</linearGradient>
<linearGradient id="paint4_linear_2240_9429" x1="30.1585" y1="68.2102" x2="31.2568" y2="63.6476" gradientUnits="userSpaceOnUse">
<stop stop-color="#047CFD"/>
<stop offset="1" stop-color="#31B8F7"/>
</linearGradient>
<linearGradient id="paint5_linear_2240_9429" x1="23.2975" y1="66.9139" x2="28.4278" y2="64.7828" gradientUnits="userSpaceOnUse">
<stop stop-color="#047CFD"/>
<stop offset="1" stop-color="#31B8F7"/>
</linearGradient>
<linearGradient id="paint6_linear_2240_9429" x1="22.7658" y1="51.5435" x2="24.7701" y2="51.4997" gradientUnits="userSpaceOnUse">
<stop stop-color="#047CFD"/>
<stop offset="1" stop-color="#31B8F7"/>
</linearGradient>
<linearGradient id="paint7_linear_2240_9429" x1="23.2975" y1="16.9139" x2="28.4278" y2="14.7828" gradientUnits="userSpaceOnUse">
<stop stop-color="#047CFD"/>
<stop offset="1" stop-color="#31B8F7"/>
</linearGradient>
<linearGradient id="paint8_linear_2240_9429" x1="30.1585" y1="13.2102" x2="31.2568" y2="8.64758" gradientUnits="userSpaceOnUse">
<stop stop-color="#047CFD"/>
<stop offset="1" stop-color="#31B8F7"/>
</linearGradient>
<linearGradient id="paint9_linear_2240_9429" x1="50.7975" y1="16.9139" x2="55.9278" y2="14.7828" gradientUnits="userSpaceOnUse">
<stop stop-color="#047CFD"/>
<stop offset="1" stop-color="#31B8F7"/>
</linearGradient>
<linearGradient id="paint10_linear_2240_9429" x1="33.4557" y1="40.8833" x2="38.634" y2="37.0578" gradientUnits="userSpaceOnUse">
<stop stop-color="#047CFD"/>
<stop offset="1" stop-color="#31B8F7"/>
</linearGradient>
<linearGradient id="paint11_linear_2240_9429" x1="33.4557" y1="40.8833" x2="38.634" y2="37.0578" gradientUnits="userSpaceOnUse">
<stop stop-color="#047CFD"/>
<stop offset="1" stop-color="#31B8F7"/>
</linearGradient>
<linearGradient id="paint12_linear_2240_9429" x1="46.5443" y1="39.3326" x2="41.366" y2="43.158" gradientUnits="userSpaceOnUse">
<stop stop-color="#047CFD"/>
<stop offset="1" stop-color="#31B8F7"/>
</linearGradient>
<linearGradient id="paint13_linear_2240_9429" x1="46.5443" y1="39.3326" x2="41.366" y2="43.158" gradientUnits="userSpaceOnUse">
<stop stop-color="#047CFD"/>
<stop offset="1" stop-color="#31B8F7"/>
</linearGradient>
</defs>
</svg>
