<svg width="150" height="41" viewBox="0 0 150 41" fill="none" xmlns="http://www.w3.org/2000/svg">
<g clip-path="url(#clip0_2198_54455)">
<path d="M34.375 9.55859H39.6552L44.8332 23.662L50.0112 9.55859H55.2889L46.6821 31.0275H42.9892L34.375 9.55859Z" fill="white"/>
<path d="M59.1263 24.0275C59.1263 26.6555 59.799 27.6738 61.6405 27.6738C63.482 27.6738 64.1547 26.6581 64.1547 24.0275V17.6777H68.5628V25.1475C68.5628 29.622 66.4223 31.4191 61.6405 31.4191C56.8587 31.4191 54.7207 29.622 54.7207 25.1475V17.6777H59.1263V24.0275Z" fill="white"/>
<path d="M71.3037 8.64844H75.7093V31.029H71.3037V8.64844Z" fill="white"/>
<path d="M87.2143 24.0541L93.8849 31.029H88.2086L83.1053 25.6845V31.0185H78.6973V8.64844H83.1053V22.3377L87.5632 17.6783H93.2944L87.2143 24.0541Z" fill="white"/>
<path d="M99.5884 17.291C101.308 17.291 102.726 17.8874 103.772 18.9553V17.6791H108.178V31.0298H103.822V29.5192H103.772C103.239 30.1223 102.592 30.6029 101.872 30.9302C101.152 31.2576 100.374 31.4245 99.5884 31.4205C95.8507 31.4205 93.2393 28.2716 93.2393 24.3675C93.2393 20.4633 95.8557 17.291 99.5884 17.291ZM100.909 27.4903C102.626 27.4903 103.872 26.188 103.872 24.3649C103.872 23.5401 103.558 22.7491 103 22.1659C102.442 21.5827 101.686 21.2551 100.897 21.2551C100.108 21.2551 99.3508 21.5827 98.7928 22.1659C98.2349 22.7491 97.9214 23.5401 97.9214 24.3649C97.9214 26.1906 99.1175 27.4903 100.909 27.4903Z" fill="white"/>
<path d="M111.168 17.6791H115.576V19.0855H115.626C116.623 18.0437 117.891 17.291 119.286 17.291C121.626 17.291 124.888 18.5125 124.888 22.2396V31.035H120.48V23.4819C120.48 22.1562 119.61 20.8774 118.19 20.8774C116.869 20.8774 115.576 22.1536 115.576 23.4819V31.035H111.168V17.6791Z" fill="white"/>
<path d="M132.508 12.1618C132.508 12.7022 132.355 13.2304 132.068 13.6797C131.78 14.129 131.372 14.4792 130.895 14.686C130.417 14.8928 129.891 14.9469 129.384 14.8414C128.877 14.736 128.411 14.4758 128.046 14.0937C127.68 13.7116 127.431 13.2248 127.33 12.6948C127.23 12.1648 127.281 11.6155 127.479 11.1163C127.677 10.617 128.012 10.1903 128.442 9.89013C128.872 9.58992 129.377 9.42969 129.894 9.42969C130.587 9.42969 131.252 9.71754 131.743 10.2299C132.233 10.7423 132.508 11.4372 132.508 12.1618ZM127.629 31.0289H132.035V17.6782H127.629V31.0289Z" fill="white"/>
<path d="M140.575 17.291C142.294 17.291 143.712 17.8874 144.759 18.9553V17.6791H149.167V31.0298H144.808V29.5192H144.759C144.225 30.1214 143.578 30.601 142.858 30.9274C142.137 31.2538 141.36 31.42 140.575 31.4152C136.837 31.4152 134.226 28.2664 134.226 24.3622C134.226 20.4581 136.842 17.291 140.575 17.291ZM141.895 27.4903C143.612 27.4903 144.858 26.188 144.858 24.3649C144.858 23.5401 144.545 22.7491 143.987 22.1659C143.429 21.5827 142.672 21.2551 141.883 21.2551C141.094 21.2551 140.337 21.5827 139.779 22.1659C139.221 22.7491 138.908 23.5401 138.908 24.3649C138.908 26.1906 140.104 27.4903 141.895 27.4903Z" fill="white"/>
<path d="M25.8609 20.1869L34.3082 37.8429H5.62728L14.0721 20.1869L17.7774 24.4427L19.9677 26.9612L22.1605 24.4427L25.8609 20.1869ZM26.5785 14.7617L19.9652 22.3591L13.3544 14.7617L0.833008 40.9396H39.1L26.5785 14.7617Z" fill="url(#paint0_linear_2198_54455)"/>
<path d="M19.9672 7.86679L22.0728 12.2684L19.9647 14.6906L17.8591 12.271L19.9672 7.86679ZM19.9672 0.941406L14.3008 12.7841L19.9647 19.2954L25.6311 12.7841L19.9672 0.941406Z" fill="#E74350"/>
</g>
<defs>
<linearGradient id="paint0_linear_2198_54455" x1="19.9677" y1="40.9396" x2="19.9677" y2="14.7617" gradientUnits="userSpaceOnUse">
<stop stop-color="#50BCEC"/>
<stop offset="1" stop-color="#544797"/>
</linearGradient>
<clipPath id="clip0_2198_54455">
<rect width="148.333" height="40" fill="white" transform="translate(0.833008 0.941406)"/>
</clipPath>
</defs>
</svg>
